<svg version="1.1" viewBox="0.0 0.0 356.0 139.0" fill="none" stroke="none" stroke-linecap="square" stroke-miterlimit="10" xmlns:xlink="http://www.w3.org/1999/xlink" xmlns="http://www.w3.org/2000/svg"><clipPath id="p.0"><path d="m0 0l356.0 0l0 139.0l-356.0 0l0 -139.0z" clip-rule="nonzero"/></clipPath><g clip-path="url(#p.0)"><path fill="#000000" fill-opacity="0.0" d="m0 0l356.0 0l0 139.0l-356.0 0z" fill-rule="evenodd"/><path fill="#000000" fill-opacity="0.0" d="m164.38583 29.661417l36.566925 0" fill-rule="evenodd"/><path stroke="#666666" stroke-width="2.0" stroke-linejoin="round" stroke-linecap="butt" d="m164.38583 29.661417l36.566925 0" fill-rule="evenodd"/><path fill="#000000" fill-opacity="0.0" d="m275.41208 56.29134l-85.51181 25.73228" fill-rule="evenodd"/><path stroke="#666666" stroke-width="2.0" stroke-linejoin="round" stroke-linecap="butt" d="m275.41208 56.29134l-85.51181 25.73228" fill-rule="evenodd"/><path fill="#33cccc" fill-opacity="0.3577" d="m15.440945 11.908314l0 0c0 -4.902531 3.974287 -8.876818 8.876818 -8.876818l131.19124 0c2.3542786 0 4.612137 0.9352336 6.2768707 2.5999599c1.6647186 1.6647263 2.5999603 3.9225793 2.5999603 6.276858l0 35.506207c0 4.9025307 -3.974289 8.87682 -8.876831 8.87682l-131.19124 0c-4.9025307 0 -8.876818 -3.974289 -8.876818 -8.87682z" fill-rule="evenodd"/><path stroke="#33cccc" stroke-width="3.0" stroke-linejoin="round" stroke-linecap="butt" d="m15.440945 11.908314l0 0c0 -4.902531 3.974287 -8.876818 8.876818 -8.876818l131.19124 0c2.3542786 0 4.612137 0.9352336 6.2768707 2.5999599c1.6647186 1.6647263 2.5999603 3.9225793 2.5999603 6.276858l0 35.506207c0 4.9025307 -3.974289 8.87682 -8.876831 8.87682l-131.19124 0c-4.9025307 0 -8.876818 -3.974289 -8.876818 -8.87682z" fill-rule="evenodd"/><path fill="#666666" d="m152.00267 20.97787l0 0c0 -1.0878258 0.8983307 -1.9696827 2.006485 -1.9696827l0 0c0.532135 0 1.0424957 0.20751953 1.4187775 0.5769062c0.376297 0.36938667 0.58769226 0.8703842 0.58769226 1.3927765l0 0c0 1.0878239 -0.8983307 1.9696808 -2.0064697 1.9696808l0 0c-1.1081543 0 -2.006485 -0.8818569 -2.006485 -1.9696808z" fill-rule="evenodd"/><path stroke="#666666" stroke-width="1.0" stroke-linejoin="round" stroke-linecap="butt" d="m152.00267 20.97787l0 0c0 -1.0878258 0.8983307 -1.9696827 2.006485 -1.9696827l0 0c0.532135 0 1.0424957 0.20751953 1.4187775 0.5769062c0.376297 0.36938667 0.58769226 0.8703842 0.58769226 1.3927765l0 0c0 1.0878239 -0.8983307 1.9696808 -2.0064697 1.9696808l0 0c-1.1081543 0 -2.006485 -0.8818569 -2.006485 -1.9696808z" fill-rule="evenodd"/><path fill="#666666" d="m152.00267 29.00669l0 0c0 -1.0878239 0.8983307 -1.9696808 2.006485 -1.9696808l0 0c0.532135 0 1.0424957 0.20751953 1.4187775 0.5769062c0.376297 0.36938667 0.58769226 0.8703823 0.58769226 1.3927746l0 0c0 1.0878258 -0.8983307 1.9696827 -2.0064697 1.9696827l0 0c-1.1081543 0 -2.006485 -0.8818569 -2.006485 -1.9696827z" fill-rule="evenodd"/><path stroke="#666666" stroke-width="1.0" stroke-linejoin="round" stroke-linecap="butt" d="m152.00267 29.00669l0 0c0 -1.0878239 0.8983307 -1.9696808 2.006485 -1.9696808l0 0c0.532135 0 1.0424957 0.20751953 1.4187775 0.5769062c0.376297 0.36938667 0.58769226 0.8703823 0.58769226 1.3927746l0 0c0 1.0878258 -0.8983307 1.9696827 -2.0064697 1.9696827l0 0c-1.1081543 0 -2.006485 -0.8818569 -2.006485 -1.9696827z" fill-rule="evenodd"/><path fill="#666666" d="m152.00267 37.03551l0 0c0 -1.0878258 0.8983307 -1.9696846 2.006485 -1.9696846l0 0c0.532135 0 1.0424957 0.20751953 1.4187775 0.5769081c0.376297 0.36938477 0.58769226 0.8703842 0.58769226 1.3927765l0 0c0 1.087822 -0.8983307 1.9696808 -2.0064697 1.9696808l0 0c-1.1081543 0 -2.006485 -0.8818588 -2.006485 -1.9696808z" fill-rule="evenodd"/><path stroke="#666666" stroke-width="1.0" stroke-linejoin="round" stroke-linecap="butt" d="m152.00267 37.03551l0 0c0 -1.0878258 0.8983307 -1.9696846 2.006485 -1.9696846l0 0c0.532135 0 1.0424957 0.20751953 1.4187775 0.5769081c0.376297 0.36938477 0.58769226 0.8703842 0.58769226 1.3927765l0 0c0 1.087822 -0.8983307 1.9696808 -2.0064697 1.9696808l0 0c-1.1081543 0 -2.006485 -0.8818588 -2.006485 -1.9696808z" fill-rule="evenodd"/><path fill="#000000" fill-opacity="0.0" d="m23.002298 28.980186l0 0c0 -6.6405773 5.3687763 -12.0238285 11.991495 -12.0238285l0 0c3.1803436 0 6.230427 1.2667923 8.479271 3.521698c2.2488403 2.2549057 3.512226 5.3132133 3.512226 8.5021305l0 0c0 6.6405754 -5.3687744 12.023827 -11.991497 12.023827l0 0c-6.622719 0 -11.991495 -5.383251 -11.991495 -12.023827z" fill-rule="evenodd"/><path stroke="#666666" stroke-width="2.0" stroke-linejoin="round" stroke-linecap="butt" d="m23.002298 28.980186l0 0c0 -6.6405773 5.3687763 -12.0238285 11.991495 -12.0238285l0 0c3.1803436 0 6.230427 1.2667923 8.479271 3.521698c2.2488403 2.2549057 3.512226 5.3132133 3.512226 8.5021305l0 0c0 6.6405754 -5.3687744 12.023827 -11.991497 12.023827l0 0c-6.622719 0 -11.991495 -5.383251 -11.991495 -12.023827z" fill-rule="evenodd"/><path fill="#000000" fill-opacity="0.0" d="m34.993793 16.956358l0 0" fill-rule="evenodd"/><path stroke="#000000" stroke-width="1.0" stroke-linejoin="round" stroke-linecap="butt" d="m34.993793 16.956358l0 0" fill-rule="evenodd"/><path fill="#000000" fill-opacity="0.0" d="m34.644043 18.224176l0 13.121599" fill-rule="evenodd"/><path stroke="#666666" stroke-width="2.0" stroke-linejoin="round" stroke-linecap="butt" d="m34.644043 18.224176l0 13.121599" fill-rule="evenodd"/><path fill="#000000" fill-opacity="0.0" d="m40.860043 24.784977l-6.2159996 6.5607986" fill-rule="evenodd"/><path stroke="#666666" stroke-width="2.0" stroke-linejoin="round" stroke-linecap="butt" d="m40.860043 24.784977l-6.2159996 6.5607986" fill-rule="evenodd"/><path fill="#000000" fill-opacity="0.0" d="m56.0 4.0039372l91.49606 0l0 37.007874l-91.49606 0z" fill-rule="evenodd"/><path fill="#666666" d="m68.70132 25.803936l-1.25 0l0 -9.46875l1.25 0l0 9.46875zm3.2342682 -7.046875l0.03125 0.78125q0.765625 -0.90625 2.09375 -0.90625q1.46875 0 2.0 1.125q0.359375 -0.5 0.921875 -0.8125q0.5625 -0.3125 1.328125 -0.3125q2.3125 0 2.359375 2.453125l0 4.71875l-1.203125 0l0 -4.640625q0 -0.765625 -0.34375 -1.140625q-0.34375 -0.375 -1.171875 -0.375q-0.65625 0 -1.109375 0.40625q-0.4375 0.40625 -0.515625 1.078125l0 4.671875l-1.203125 0l0 -4.609375q0 -1.546875 -1.5 -1.546875q-1.1875 0 -1.625 1.015625l0 5.140625l-1.203125 0l0 -7.046875l1.140625 0zm16.49414 3.609375q0 1.609375 -0.734375 2.59375q-0.734375 0.96875 -2.0 0.96875q-1.28125 0 -2.015625 -0.8125l0 3.390625l-1.203125 0l0 -9.75l1.109375 0l0.046875 0.78125q0.75 -0.90625 2.046875 -0.90625q1.265625 0 2.0 0.953125q0.75 0.953125 0.75 2.671875l0 0.109375zm-1.203125 -0.140625q0 -1.1875 -0.515625 -1.875q-0.5 -0.703125 -1.390625 -0.703125q-1.09375 0 -1.640625 0.96875l0 3.375q0.546875 0.953125 1.65625 0.953125q0.875 0 1.375 -0.671875q0.515625 -0.6875 0.515625 -2.046875zm2.4150543 0q0 -1.046875 0.40625 -1.875q0.40625 -0.828125 1.125 -1.265625q0.734375 -0.453125 1.65625 -0.453125q1.4375 0 2.328125 1.0q0.890625 0.984375 0.890625 2.640625l0 0.09375q0 1.015625 -0.390625 1.84375q-0.390625 0.8125 -1.125 1.265625q-0.734375 0.453125 -1.6875 0.453125q-1.421875 0 -2.3125 -0.984375q-0.890625 -1.0 -0.890625 -2.640625l0 -0.078125zm1.203125 0.140625q0 1.171875 0.546875 1.875q0.546875 0.703125 1.453125 0.703125q0.921875 0 1.453125 -0.71875q0.546875 -0.71875 0.546875 -2.0q0 -1.171875 -0.546875 -1.890625q-0.546875 -0.71875 -1.46875 -0.71875q-0.890625 0 -1.4375 0.71875q-0.546875 0.703125 -0.546875 2.03125zm10.116821 -2.53125q-0.265625 -0.03125 -0.59375 -0.03125q-1.1875 0 -1.609375 1.0l0 5.0l-1.203125 0l0 -7.046875l1.171875 0l0.03125 0.8125q0.578125 -0.9375 1.671875 -0.9375q0.34375 0 0.53125 0.09375l0 1.109375zm2.744339 -2.78125l0 1.703125l1.3125 0l0 0.9375l-1.3125 0l0 4.359375q0 0.421875 0.171875 0.640625q0.171875 0.21875 0.59375 0.21875q0.21875 0 0.578125 -0.078125l0 0.96875q-0.46875 0.125 -0.921875 0.125q-0.8125 0 -1.21875 -0.484375q-0.40625 -0.484375 -0.40625 -1.390625l0 -4.359375l-1.28125 0l0 -0.9375l1.28125 0l0 -1.703125l1.203125 0zm6.6063995 8.75l0 -6.109375l-1.109375 0l0 -0.9375l1.109375 0l0 -0.71875q0 -1.125 0.609375 -1.734375q0.609375 -0.625 1.703125 -0.625q0.421875 0 0.828125 0.109375l-0.0625 0.96875q-0.296875 -0.0625 -0.640625 -0.0625q-0.59375 0 -0.921875 0.34375q-0.3125 0.34375 -0.3125 0.984375l0 0.734375l1.5 0l0 0.9375l-1.5 0l0 6.109375l-1.203125 0zm7.4396057 -5.96875q-0.265625 -0.03125 -0.59375 -0.03125q-1.1875 0 -1.609375 1.0l0 5.0l-1.203125 0l0 -7.046875l1.171875 0l0.03125 0.8125q0.578125 -0.9375 1.671875 -0.9375q0.34375 0 0.53125 0.09375l0 1.109375zm0.791214 2.390625q0 -1.046875 0.40625 -1.875q0.40625 -0.828125 1.125 -1.265625q0.734375 -0.453125 1.65625 -0.453125q1.4375 0 2.328125 1.0q0.890625 0.984375 0.890625 2.640625l0 0.09375q0 1.015625 -0.390625 1.84375q-0.390625 0.8125 -1.125 1.265625q-0.734375 0.453125 -1.6875 0.453125q-1.421875 0 -2.3125 -0.984375q-0.890625 -1.0 -0.890625 -2.640625l0 -0.078125zm1.203125 0.140625q0 1.171875 0.546875 1.875q0.546875 0.703125 1.453125 0.703125q0.921875 0 1.453125 -0.71875q0.546875 -0.71875 0.546875 -2.0q0 -1.171875 -0.546875 -1.890625q-0.546875 -0.71875 -1.46875 -0.71875q-0.890625 0 -1.4375 0.71875q-0.546875 0.703125 -0.546875 2.03125zm7.8511963 -3.609375l0.03125 0.78125q0.7656174 -0.90625 2.0937424 -0.90625q1.46875 0 2.0 1.125q0.359375 -0.5 0.921875 -0.8125q0.5625 -0.3125 1.328125 -0.3125q2.3125 0 2.359375 2.453125l0 4.71875l-1.203125 0l0 -4.640625q0 -0.765625 -0.34375 -1.140625q-0.34375 -0.375 -1.171875 -0.375q-0.65625 0 -1.109375 0.40625q-0.4375 0.40625 -0.515625 1.078125l0 4.671875l-1.203125 0l0 -4.609375q0 -1.546875 -1.5 -1.546875q-1.1875 0 -1.6249924 1.015625l0 5.140625l-1.203125 0l0 -7.046875l1.140625 0z" fill-rule="nonzero"/><path fill="#666666" d="m76.1432 41.803936l0 -9.46875l3.109375 0q1.53125 0 2.3125 0.640625q0.78125 0.625 0.78125 1.875q0 0.671875 -0.375 1.1875q-0.375 0.5 -1.03125 0.78125q0.765625 0.21875 1.203125 0.828125q0.453125 0.59375 0.453125 1.421875q0 1.28125 -0.828125 2.015625q-0.828125 0.71875 -2.328125 0.71875l-3.296875 0zm1.25 -4.4375l0 3.421875l2.0625 0q0.875 0 1.375 -0.453125q0.515625 -0.453125 0.515625 -1.25q0 -1.71875 -1.859375 -1.71875l-2.09375 0zm0 -1.0l1.890625 0q0.828125 0 1.3125 -0.40625q0.5 -0.40625 0.5 -1.109375q0 -0.78125 -0.46875 -1.140625q-0.453125 -0.359375 -1.375 -0.359375l-1.859375 0l0 3.015625zm8.172546 5.4375l-1.203125 0l0 -7.046875l1.203125 0l0 7.046875zm-1.296875 -8.90625q0 -0.296875 0.171875 -0.5q0.1875 -0.203125 0.53125 -0.203125q0.359375 0 0.53125 0.203125q0.1875 0.203125 0.1875 0.5q0 0.296875 -0.1875 0.5q-0.171875 0.1875 -0.53125 0.1875q-0.34375 0 -0.53125 -0.1875q-0.171875 -0.203125 -0.171875 -0.5zm2.9375458 5.328125q0 -1.640625 0.75 -2.609375q0.765625 -0.984375 2.03125 -0.984375q1.28125 0 2.015625 0.90625l0.046875 -0.78125l1.109375 0l0 6.875q0 1.375 -0.8125 2.15625q-0.8125 0.78125 -2.1875 0.78125q-0.75 0 -1.484375 -0.328125q-0.734375 -0.3125 -1.109375 -0.875l0.625 -0.734375q0.765625 0.96875 1.890625 0.96875q0.875 0 1.359375 -0.5q0.5 -0.5 0.5 -1.390625l0 -0.609375q-0.71875 0.828125 -1.96875 0.828125q-1.234375 0 -2.0 -0.984375q-0.765625 -1.0 -0.765625 -2.71875zm1.203125 0.140625q0 1.1875 0.484375 1.875q0.5 0.671875 1.375 0.671875q1.140625 0 1.671875 -1.03125l0 -3.21875q-0.546875 -1.015625 -1.65625 -1.015625q-0.875 0 -1.375 0.6875q-0.5 0.6875 -0.5 2.03125zm13.993179 -1.0q0 1.375 -0.4375 2.375q-0.4375 0.984375 -1.234375 1.546875l1.703125 1.328125l-0.859375 0.78125l-2.0 -1.578125q-0.46875 0.109375 -0.984375 0.109375q-1.125 0 -2.0 -0.546875q-0.859375 -0.546875 -1.34375 -1.5625q-0.46875 -1.015625 -0.484375 -2.359375l0 -0.6875q0 -1.359375 0.46875 -2.40625q0.484375 -1.0625 1.34375 -1.609375q0.875 -0.5625 2.0 -0.5625q1.140625 0 2.015625 0.5625q0.875 0.546875 1.34375 1.59375q0.46875 1.03125 0.46875 2.421875l0 0.59375zm-1.25 -0.609375q0 -1.671875 -0.671875 -2.578125q-0.671875 -0.90625 -1.90625 -0.90625q-1.171875 0 -1.859375 0.90625q-0.671875 0.890625 -0.703125 2.5l0 0.6875q0 1.625 0.671875 2.5625q0.6875 0.9375 1.890625 0.9375q1.21875 0 1.875 -0.875q0.671875 -0.875 0.703125 -2.53125l0 -0.703125zm7.334961 4.34375q-0.703125 0.828125 -2.0625 0.828125q-1.140625 0 -1.734375 -0.640625q-0.578125 -0.65625 -0.578125 -1.9375l0 -4.59375l1.203125 0l0 4.546875q0 1.609375 1.296875 1.609375q1.375 0 1.828125 -1.03125l0 -5.125l1.21875 0l0 7.046875l-1.15625 0l-0.015625 -0.703125zm5.909897 0.828125q-1.421875 0 -2.328125 -0.9375q-0.890625 -0.9375 -0.890625 -2.515625l0 -0.21875q0 -1.046875 0.390625 -1.859375q0.40625 -0.828125 1.125 -1.296875q0.71875 -0.46875 1.5625 -0.46875q1.375 0 2.125 0.90625q0.765625 0.90625 0.765625 2.59375l0 0.5l-4.765625 0q0.015625 1.03125 0.59375 1.671875q0.59375 0.640625 1.484375 0.640625q0.640625 0 1.078125 -0.25q0.453125 -0.265625 0.78125 -0.6875l0.734375 0.5625q-0.875 1.359375 -2.65625 1.359375zm-0.140625 -6.3125q-0.734375 0 -1.234375 0.53125q-0.484375 0.53125 -0.609375 1.484375l3.53125 0l0 -0.078125q-0.046875 -0.921875 -0.5 -1.421875q-0.4375 -0.515625 -1.1875 -0.515625zm7.6860504 0.21875q-0.265625 -0.03125 -0.59375 -0.03125q-1.1875 0 -1.609375 1.0l0 5.0l-1.203125 0l0 -7.046875l1.171875 0l0.03125 0.8125q0.578125 -0.9375 1.671875 -0.9375q0.34375 0 0.53125 0.09375l0 1.109375zm3.416214 4.203125l1.640625 -5.28125l1.28125 0l-2.828125 8.140625q-0.65625 1.75 -2.09375 1.75l-0.21875 -0.015625l-0.453125 -0.09375l0 -0.96875l0.328125 0.03125q0.609375 0 0.953125 -0.25q0.34375 -0.25 0.5625 -0.90625l0.265625 -0.71875l-2.515625 -6.96875l1.3125 0l1.765625 5.28125z" fill-rule="nonzero"/><path fill="#33cccc" fill-opacity="0.3577" d="m115.44095 90.90832l0 0c0 -4.9025345 3.9742813 -8.876823 8.876816 -8.876823l131.19124 0c2.3542786 0 4.612152 0.93523407 6.2768555 2.5999603c1.6647339 1.6647263 2.5999756 3.9225845 2.5999756 6.276863l0 35.506203c0 4.902527 -3.9743042 8.876816 -8.876831 8.876816l-131.19124 0c-4.9025345 0 -8.876816 -3.974289 -8.876816 -8.876816z" fill-rule="evenodd"/><path stroke="#33cccc" stroke-width="3.0" stroke-linejoin="round" stroke-linecap="butt" d="m115.44095 90.90832l0 0c0 -4.9025345 3.9742813 -8.876823 8.876816 -8.876823l131.19124 0c2.3542786 0 4.612152 0.93523407 6.2768555 2.5999603c1.6647339 1.6647263 2.5999756 3.9225845 2.5999756 6.276863l0 35.506203c0 4.902527 -3.9743042 8.876816 -8.876831 8.876816l-131.19124 0c-4.9025345 0 -8.876816 -3.974289 -8.876816 -8.876816z" fill-rule="evenodd"/><path fill="#666666" d="m252.00267 99.97787l0 0c0 -1.087822 0.8983307 -1.9696808 2.006485 -1.9696808l0 0c0.532135 0 1.0424957 0.20751953 1.4187775 0.5769119c0.376297 0.36938477 0.58769226 0.8703766 0.58769226 1.3927689l0 0c0 1.0878296 -0.8983307 1.9696884 -2.0064697 1.9696884l0 0c-1.1081543 0 -2.006485 -0.8818588 -2.006485 -1.9696884z" fill-rule="evenodd"/><path stroke="#666666" stroke-width="1.0" stroke-linejoin="round" stroke-linecap="butt" d="m252.00267 99.97787l0 0c0 -1.087822 0.8983307 -1.9696808 2.006485 -1.9696808l0 0c0.532135 0 1.0424957 0.20751953 1.4187775 0.5769119c0.376297 0.36938477 0.58769226 0.8703766 0.58769226 1.3927689l0 0c0 1.0878296 -0.8983307 1.9696884 -2.0064697 1.9696884l0 0c-1.1081543 0 -2.006485 -0.8818588 -2.006485 -1.9696884z" fill-rule="evenodd"/><path fill="#666666" d="m252.00267 108.00669l0 0c0 -1.0878296 0.8983307 -1.9696808 2.006485 -1.9696808l0 0c0.532135 0 1.0424957 0.20751953 1.4187775 0.5769043c0.376297 0.36938477 0.58769226 0.8703842 0.58769226 1.3927765l0 0c0 1.087822 -0.8983307 1.9696808 -2.0064697 1.9696808l0 0c-1.1081543 0 -2.006485 -0.8818588 -2.006485 -1.9696808z" fill-rule="evenodd"/><path stroke="#666666" stroke-width="1.0" stroke-linejoin="round" stroke-linecap="butt" d="m252.00267 108.00669l0 0c0 -1.0878296 0.8983307 -1.9696808 2.006485 -1.9696808l0 0c0.532135 0 1.0424957 0.20751953 1.4187775 0.5769043c0.376297 0.36938477 0.58769226 0.8703842 0.58769226 1.3927765l0 0c0 1.087822 -0.8983307 1.9696808 -2.0064697 1.9696808l0 0c-1.1081543 0 -2.006485 -0.8818588 -2.006485 -1.9696808z" fill-rule="evenodd"/><path fill="#666666" d="m252.00267 116.03551l0 0c0 -1.087822 0.8983307 -1.9696808 2.006485 -1.9696808l0 0c0.532135 0 1.0424957 0.20751953 1.4187775 0.5769043c0.376297 0.3693924 0.58769226 0.8703842 0.58769226 1.3927765l0 0c0 1.0878296 -0.8983307 1.9696808 -2.0064697 1.9696808l0 0c-1.1081543 0 -2.006485 -0.8818512 -2.006485 -1.9696808z" fill-rule="evenodd"/><path stroke="#666666" stroke-width="1.0" stroke-linejoin="round" stroke-linecap="butt" d="m252.00267 116.03551l0 0c0 -1.087822 0.8983307 -1.9696808 2.006485 -1.9696808l0 0c0.532135 0 1.0424957 0.20751953 1.4187775 0.5769043c0.376297 0.3693924 0.58769226 0.8703842 0.58769226 1.3927765l0 0c0 1.0878296 -0.8983307 1.9696808 -2.0064697 1.9696808l0 0c-1.1081543 0 -2.006485 -0.8818512 -2.006485 -1.9696808z" fill-rule="evenodd"/><path fill="#000000" fill-opacity="0.0" d="m123.0023 107.98019l0 0c0 -6.640579 5.368782 -12.023827 11.991493 -12.023827l0 0c3.1803436 0 6.230438 1.2667923 8.479279 3.521698c2.2488403 2.2549057 3.5122223 5.3132095 3.5122223 8.502129l0 0c0 6.640579 -5.3687744 12.023827 -11.991501 12.023827l0 0c-6.622711 0 -11.991493 -5.3832474 -11.991493 -12.023827z" fill-rule="evenodd"/><path stroke="#666666" stroke-width="2.0" stroke-linejoin="round" stroke-linecap="butt" d="m123.0023 107.98019l0 0c0 -6.640579 5.368782 -12.023827 11.991493 -12.023827l0 0c3.1803436 0 6.230438 1.2667923 8.479279 3.521698c2.2488403 2.2549057 3.5122223 5.3132095 3.5122223 8.502129l0 0c0 6.640579 -5.3687744 12.023827 -11.991501 12.023827l0 0c-6.622711 0 -11.991493 -5.3832474 -11.991493 -12.023827z" fill-rule="evenodd"/><path fill="#000000" fill-opacity="0.0" d="m134.99379 95.95636l0 0" fill-rule="evenodd"/><path stroke="#000000" stroke-width="1.0" stroke-linejoin="round" stroke-linecap="butt" d="m134.99379 95.95636l0 0" fill-rule="evenodd"/><path fill="#000000" fill-opacity="0.0" d="m134.64404 97.224174l0 13.121605" fill-rule="evenodd"/><path stroke="#666666" stroke-width="2.0" stroke-linejoin="round" stroke-linecap="butt" d="m134.64404 97.224174l0 13.121605" fill-rule="evenodd"/><path fill="#000000" fill-opacity="0.0" d="m140.86005 103.78497l-6.2160034 6.5608063" fill-rule="evenodd"/><path stroke="#666666" stroke-width="2.0" stroke-linejoin="round" stroke-linecap="butt" d="m140.86005 103.78497l-6.2160034 6.5608063" fill-rule="evenodd"/><path fill="#000000" fill-opacity="0.0" d="m156.0 83.00394l91.49606 0l0 37.007874l-91.49606 0z" fill-rule="evenodd"/><path fill="#666666" d="m189.13959 100.42894l-4.109375 0l0 3.359375l4.78125 0l0 1.015625l-6.03125 0l0 -9.46875l5.953125 0l0 1.015625l-4.703125 0l0 3.046875l4.109375 0l0 1.03125zm4.40329 -0.09375l1.546875 -2.578125l1.40625 0l-2.296875 3.484375l2.375 3.5625l-1.390625 0l-1.625 -2.640625l-1.625 2.640625l-1.40625 0l2.375 -3.5625l-2.296875 -3.484375l1.390625 0l1.546875 2.578125zm10.183624 1.03125q0 1.609375 -0.734375 2.59375q-0.734375 0.96875 -2.0 0.96875q-1.28125 0 -2.015625 -0.8125l0 3.390625l-1.203125 0l0 -9.75l1.109375 0l0.046875 0.78125q0.75 -0.90625 2.046875 -0.90625q1.265625 0 2.0 0.953125q0.75 0.953125 0.75 2.671875l0 0.109375zm-1.203125 -0.140625q0 -1.1875 -0.515625 -1.875q-0.5 -0.703125 -1.390625 -0.703125q-1.09375 0 -1.640625 0.96875l0 3.375q0.546875 0.953125 1.65625 0.953125q0.875 0 1.375 -0.671875q0.515625 -0.6875 0.515625 -2.046875zm2.415039 0q0 -1.046875 0.40625 -1.875q0.40625 -0.828125 1.125 -1.265625q0.734375 -0.453125 1.65625 -0.453125q1.4375 0 2.328125 1.0q0.890625 0.984375 0.890625 2.640625l0 0.09375q0 1.015625 -0.390625 1.84375q-0.390625 0.8125 -1.125 1.265625q-0.734375 0.453125 -1.6875 0.453125q-1.421875 0 -2.3125 -0.984375q-0.890625 -1.0 -0.890625 -2.640625l0 -0.078125zm1.203125 0.140625q0 1.171875 0.546875 1.875q0.546875 0.703125 1.453125 0.703125q0.921875 0 1.453125 -0.71875q0.546875 -0.71875 0.546875 -2.0q0 -1.171875 -0.546875 -1.890625q-0.546875 -0.71875 -1.46875 -0.71875q-0.890625 0 -1.4375 0.71875q-0.546875 0.703125 -0.546875 2.03125zm10.116821 -2.53125q-0.265625 -0.03125 -0.59375 -0.03125q-1.1875 0 -1.609375 1.0l0 5.0l-1.203125 0l0 -7.046875l1.171875 0l0.03125 0.8125q0.578125 -0.9375 1.671875 -0.9375q0.34375 0 0.53125 0.09375l0 1.109375zm2.7443542 -2.78125l0 1.703125l1.3125 0l0 0.9375l-1.3125 0l0 4.359375q0 0.421875 0.171875 0.640625q0.171875 0.21875 0.59375 0.21875q0.21875 0 0.578125 -0.078125l0 0.96875q-0.46875 0.125 -0.921875 0.125q-0.8125 0 -1.21875 -0.484375q-0.40625 -0.484375 -0.40625 -1.390625l0 -4.359375l-1.28125 0l0 -0.9375l1.28125 0l0 -1.703125l1.203125 0z" fill-rule="nonzero"/><path fill="#666666" d="m176.67719 120.80394q-0.109375 -0.203125 -0.171875 -0.734375q-0.84375 0.859375 -2.015625 0.859375q-1.03125 0 -1.703125 -0.578125q-0.671875 -0.59375 -0.671875 -1.5q0 -1.09375 0.828125 -1.703125q0.84375 -0.609375 2.359375 -0.609375l1.171875 0l0 -0.5625q0 -0.625 -0.375 -1.0q-0.375 -0.375 -1.109375 -0.375q-0.640625 0 -1.078125 0.328125q-0.4375 0.328125 -0.4375 0.78125l-1.203125 0q0 -0.515625 0.359375 -1.0q0.375 -0.5 1.015625 -0.78125q0.65625 -0.296875 1.421875 -0.296875q1.21875 0 1.90625 0.609375q0.6875 0.609375 0.71875 1.671875l0 3.25q0 0.96875 0.234375 1.53125l0 0.109375l-1.25 0zm-2.0 -0.921875q0.5625 0 1.0625 -0.28125q0.515625 -0.296875 0.734375 -0.765625l0 -1.453125l-0.9375 0q-2.21875 0 -2.21875 1.296875q0 0.5625 0.375 0.890625q0.390625 0.3125 0.984375 0.3125zm9.249771 0.21875q-0.703125 0.828125 -2.0625 0.828125q-1.140625 0 -1.734375 -0.640625q-0.578125 -0.65625 -0.578125 -1.9375l0 -4.59375l1.203125 0l0 4.546875q0 1.609375 1.296875 1.609375q1.375 0 1.828125 -1.03125l0 -5.125l1.21875 0l0 7.046875l-1.15625 0l-0.015625 -0.703125zm2.7067719 -2.875q0 -1.625 0.765625 -2.609375q0.765625 -0.984375 2.0 -0.984375q1.25 0 1.96875 0.84375l0 -3.671875l1.203125 0l0 10.0l-1.109375 0l-0.0625 -0.75q-0.71875 0.875 -2.0 0.875q-1.234375 0 -2.0 -1.0q-0.765625 -1.0 -0.765625 -2.609375l0 -0.09375zm1.203125 0.140625q0 1.1875 0.484375 1.875q0.5 0.671875 1.375 0.671875q1.140625 0 1.671875 -1.03125l0 -3.234375q-0.546875 -1.0 -1.65625 -1.0q-0.890625 0 -1.390625 0.6875q-0.484375 0.6875 -0.484375 2.03125zm7.9072266 3.4375l-1.203125 0l0 -7.046875l1.203125 0l0 7.046875zm-1.296875 -8.90625q0 -0.296875 0.171875 -0.5q0.1875 -0.203125 0.53125 -0.203125q0.359375 0 0.53125 0.203125q0.1875 0.203125 0.1875 0.5q0 0.296875 -0.1875 0.5q-0.171875 0.1875 -0.53125 0.1875q-0.34375 0 -0.53125 -0.1875q-0.171875 -0.203125 -0.171875 -0.5zm6.140671 9.03125q-1.421875 0 -2.328125 -0.9375q-0.890625 -0.9375 -0.890625 -2.515625l0 -0.21875q0 -1.046875 0.390625 -1.859375q0.40625 -0.828125 1.125 -1.296875q0.71875 -0.46875 1.5625 -0.46875q1.375 0 2.125 0.90625q0.765625 0.90625 0.765625 2.59375l0 0.5l-4.765625 0q0.015625 1.03125 0.59375 1.671875q0.59375 0.640625 1.484375 0.640625q0.640625 0 1.078125 -0.25q0.453125 -0.265625 0.78125 -0.6875l0.734375 0.5625q-0.875 1.359375 -2.65625 1.359375zm-0.140625 -6.3125q-0.734375 0 -1.234375 0.53125q-0.484375 0.53125 -0.609375 1.484375l3.53125 0l0 -0.078125q-0.046875 -0.921875 -0.5 -1.421875q-0.4375 -0.515625 -1.1875 -0.515625zm5.4204254 -0.859375l0.046875 0.890625q0.796875 -1.015625 2.109375 -1.015625q2.234375 0 2.25 2.515625l0 4.65625l-1.203125 0l0 -4.65625q-0.015625 -0.765625 -0.359375 -1.125q-0.328125 -0.375 -1.0625 -0.375q-0.578125 0 -1.03125 0.3125q-0.4375 0.3125 -0.6875 0.828125l0 5.015625l-1.203125 0l0 -7.046875l1.140625 0zm9.041397 6.1875q0.640625 0 1.125 -0.390625q0.484375 -0.390625 0.53125 -0.96875l1.140625 0q-0.03125 0.609375 -0.421875 1.15625q-0.375 0.546875 -1.015625 0.875q-0.640625 0.3125 -1.359375 0.3125q-1.4375 0 -2.296875 -0.953125q-0.84375 -0.96875 -0.84375 -2.625l0 -0.203125q0 -1.03125 0.375 -1.828125q0.390625 -0.796875 1.09375 -1.234375q0.703125 -0.453125 1.671875 -0.453125q1.171875 0 1.953125 0.71875q0.796875 0.703125 0.84375 1.828125l-1.140625 0q-0.046875 -0.671875 -0.515625 -1.109375q-0.46875 -0.453125 -1.140625 -0.453125q-0.921875 0 -1.4375 0.671875q-0.5 0.65625 -0.5 1.90625l0 0.21875q0 1.21875 0.5 1.875q0.515625 0.65625 1.4375 0.65625zm7.0701904 0.984375q-1.421875 0 -2.328125 -0.9375q-0.890625 -0.9375 -0.890625 -2.515625l0 -0.21875q0 -1.046875 0.390625 -1.859375q0.40625 -0.828125 1.125 -1.296875q0.71875 -0.46875 1.5625 -0.46875q1.375 0 2.125 0.90625q0.765625 0.90625 0.765625 2.59375l0 0.5l-4.765625 0q0.015625 1.03125 0.59375 1.671875q0.59375 0.640625 1.484375 0.640625q0.640625 0 1.078125 -0.25q0.453125 -0.265625 0.78125 -0.6875l0.734375 0.5625q-0.875 1.359375 -2.65625 1.359375zm-0.140625 -6.3125q-0.734375 0 -1.234375 0.53125q-0.484375 0.53125 -0.609375 1.484375l3.53125 0l0 -0.078125q-0.046875 -0.921875 -0.5 -1.421875q-0.4375 -0.515625 -1.1875 -0.515625zm8.389175 4.3125q0 -0.484375 -0.375 -0.75q-0.359375 -0.265625 -1.28125 -0.453125q-0.90625 -0.203125 -1.453125 -0.46875q-0.53125 -0.28125 -0.796875 -0.65625q-0.25 -0.390625 -0.25 -0.90625q0 -0.859375 0.734375 -1.453125q0.734375 -0.609375 1.875 -0.609375q1.1875 0 1.9375 0.625q0.75 0.609375 0.75 1.578125l-1.21875 0q0 -0.5 -0.421875 -0.859375q-0.421875 -0.359375 -1.046875 -0.359375q-0.65625 0 -1.03125 0.296875q-0.375 0.28125 -0.375 0.75q0 0.421875 0.34375 0.65625q0.34375 0.21875 1.25 0.421875q0.90625 0.203125 1.453125 0.484375q0.5625 0.265625 0.828125 0.671875q0.28125 0.390625 0.28125 0.953125q0 0.9375 -0.765625 1.515625q-0.75 0.5625 -1.953125 0.5625q-0.84375 0 -1.5 -0.296875q-0.640625 -0.296875 -1.015625 -0.828125q-0.359375 -0.546875 -0.359375 -1.171875l1.203125 0q0.03125 0.609375 0.484375 0.96875q0.453125 0.34375 1.1875 0.34375q0.6875 0 1.09375 -0.265625q0.421875 -0.28125 0.421875 -0.75z" fill-rule="nonzero"/><path fill="#33cccc" fill-opacity="0.3577" d="m200.93964 11.908314l0 0c0 -4.902531 3.974289 -8.876818 8.876816 -8.876818l131.19124 0c2.3542786 0 4.612152 0.9352336 6.2768555 2.5999599c1.6647339 1.6647263 2.5999756 3.9225793 2.5999756 6.276858l0 35.506207c0 4.9025307 -3.9743042 8.87682 -8.876831 8.87682l-131.19124 0c-4.902527 0 -8.876816 -3.974289 -8.876816 -8.87682z" fill-rule="evenodd"/><path stroke="#33cccc" stroke-width="3.0" stroke-linejoin="round" stroke-linecap="butt" d="m200.93964 11.908314l0 0c0 -4.902531 3.974289 -8.876818 8.876816 -8.876818l131.19124 0c2.3542786 0 4.612152 0.9352336 6.2768555 2.5999599c1.6647339 1.6647263 2.5999756 3.9225793 2.5999756 6.276858l0 35.506207c0 4.9025307 -3.9743042 8.87682 -8.876831 8.87682l-131.19124 0c-4.902527 0 -8.876816 -3.974289 -8.876816 -8.87682z" fill-rule="evenodd"/><path fill="#666666" d="m337.50137 20.97787l0 0c0 -1.0878258 0.8983154 -1.9696827 2.0064697 -1.9696827l0 0c0.532135 0 1.042511 0.20751953 1.4187927 0.5769062c0.37628174 0.36938667 0.587677 0.8703842 0.587677 1.3927765l0 0c0 1.0878239 -0.89834595 1.9696808 -2.0064697 1.9696808l0 0c-1.1081543 0 -2.0064697 -0.8818569 -2.0064697 -1.9696808z" fill-rule="evenodd"/><path stroke="#666666" stroke-width="1.0" stroke-linejoin="round" stroke-linecap="butt" d="m337.50137 20.97787l0 0c0 -1.0878258 0.8983154 -1.9696827 2.0064697 -1.9696827l0 0c0.532135 0 1.042511 0.20751953 1.4187927 0.5769062c0.37628174 0.36938667 0.587677 0.8703842 0.587677 1.3927765l0 0c0 1.0878239 -0.89834595 1.9696808 -2.0064697 1.9696808l0 0c-1.1081543 0 -2.0064697 -0.8818569 -2.0064697 -1.9696808z" fill-rule="evenodd"/><path fill="#666666" d="m337.50137 29.00669l0 0c0 -1.0878239 0.8983154 -1.9696808 2.0064697 -1.9696808l0 0c0.532135 0 1.042511 0.20751953 1.4187927 0.5769062c0.37628174 0.36938667 0.587677 0.8703823 0.587677 1.3927746l0 0c0 1.0878258 -0.89834595 1.9696827 -2.0064697 1.9696827l0 0c-1.1081543 0 -2.0064697 -0.8818569 -2.0064697 -1.9696827z" fill-rule="evenodd"/><path stroke="#666666" stroke-width="1.0" stroke-linejoin="round" stroke-linecap="butt" d="m337.50137 29.00669l0 0c0 -1.0878239 0.8983154 -1.9696808 2.0064697 -1.9696808l0 0c0.532135 0 1.042511 0.20751953 1.4187927 0.5769062c0.37628174 0.36938667 0.587677 0.8703823 0.587677 1.3927746l0 0c0 1.0878258 -0.89834595 1.9696827 -2.0064697 1.9696827l0 0c-1.1081543 0 -2.0064697 -0.8818569 -2.0064697 -1.9696827z" fill-rule="evenodd"/><path fill="#666666" d="m337.50137 37.03551l0 0c0 -1.0878258 0.8983154 -1.9696846 2.0064697 -1.9696846l0 0c0.532135 0 1.042511 0.20751953 1.4187927 0.5769081c0.37628174 0.36938477 0.587677 0.8703842 0.587677 1.3927765l0 0c0 1.087822 -0.89834595 1.9696808 -2.0064697 1.9696808l0 0c-1.1081543 0 -2.0064697 -0.8818588 -2.0064697 -1.9696808z" fill-rule="evenodd"/><path stroke="#666666" stroke-width="1.0" stroke-linejoin="round" stroke-linecap="butt" d="m337.50137 37.03551l0 0c0 -1.0878258 0.8983154 -1.9696846 2.0064697 -1.9696846l0 0c0.532135 0 1.042511 0.20751953 1.4187927 0.5769081c0.37628174 0.36938477 0.587677 0.8703842 0.587677 1.3927765l0 0c0 1.087822 -0.89834595 1.9696808 -2.0064697 1.9696808l0 0c-1.1081543 0 -2.0064697 -0.8818588 -2.0064697 -1.9696808z" fill-rule="evenodd"/><path fill="#000000" fill-opacity="0.0" d="m208.50099 28.980186l0 0c0 -6.6405773 5.3687744 -12.0238285 11.991486 -12.0238285l0 0c3.1803436 0 6.230438 1.2667923 8.479279 3.521698c2.2488403 2.2549057 3.5122223 5.3132133 3.5122223 8.5021305l0 0c0 6.6405754 -5.3687744 12.023827 -11.991501 12.023827l0 0c-6.622711 0 -11.991486 -5.383251 -11.991486 -12.023827z" fill-rule="evenodd"/><path stroke="#666666" stroke-width="2.0" stroke-linejoin="round" stroke-linecap="butt" d="m208.50099 28.980186l0 0c0 -6.6405773 5.3687744 -12.0238285 11.991486 -12.0238285l0 0c3.1803436 0 6.230438 1.2667923 8.479279 3.521698c2.2488403 2.2549057 3.5122223 5.3132133 3.5122223 8.5021305l0 0c0 6.6405754 -5.3687744 12.023827 -11.991501 12.023827l0 0c-6.622711 0 -11.991486 -5.383251 -11.991486 -12.023827z" fill-rule="evenodd"/><path fill="#000000" fill-opacity="0.0" d="m220.49248 16.956358l0 0" fill-rule="evenodd"/><path stroke="#000000" stroke-width="1.0" stroke-linejoin="round" stroke-linecap="butt" d="m220.49248 16.956358l0 0" fill-rule="evenodd"/><path fill="#000000" fill-opacity="0.0" d="m220.14273 18.224176l0 13.121599" fill-rule="evenodd"/><path stroke="#666666" stroke-width="2.0" stroke-linejoin="round" stroke-linecap="butt" d="m220.14273 18.224176l0 13.121599" fill-rule="evenodd"/><path fill="#000000" fill-opacity="0.0" d="m226.35873 24.784977l-6.2160034 6.5607986" fill-rule="evenodd"/><path stroke="#666666" stroke-width="2.0" stroke-linejoin="round" stroke-linecap="butt" d="m226.35873 24.784977l-6.2160034 6.5607986" fill-rule="evenodd"/><path fill="#000000" fill-opacity="0.0" d="m241.49869 4.0039372l91.49606 0l0 37.007874l-91.49606 0z" fill-rule="evenodd"/><path fill="#666666" d="m264.8003 22.803936q-0.171875 1.5 -1.109375 2.3125q-0.921875 0.8125 -2.46875 0.8125q-1.6875 0 -2.703125 -1.203125q-1.0 -1.203125 -1.0 -3.21875l0 -0.90625q0 -1.328125 0.46875 -2.328125q0.46875 -1.0 1.328125 -1.53125q0.875 -0.546875 2.015625 -0.546875q1.5 0 2.40625 0.84375q0.921875 0.84375 1.0625 2.328125l-1.25 0q-0.15625 -1.125 -0.703125 -1.625q-0.546875 -0.515625 -1.515625 -0.515625q-1.203125 0 -1.890625 0.890625q-0.671875 0.875 -0.671875 2.515625l0 0.921875q0 1.53125 0.640625 2.453125q0.640625 0.90625 1.8125 0.90625q1.03125 0 1.578125 -0.46875q0.5625 -0.46875 0.75 -1.640625l1.25 0zm4.924988 -2.96875q-0.265625 -0.03125 -0.59375 -0.03125q-1.1875 0 -1.609375 1.0l0 5.0l-1.203125 0l0 -7.046875l1.171875 0l0.03125 0.8125q0.578125 -0.9375 1.671875 -0.9375q0.34375 0 0.53125 0.09375l0 1.109375zm4.0256042 6.09375q-1.421875 0 -2.328125 -0.9375q-0.890625 -0.9375 -0.890625 -2.515625l0 -0.21875q0 -1.046875 0.390625 -1.859375q0.40625 -0.828125 1.125 -1.296875q0.71875 -0.46875 1.5625 -0.46875q1.375 0 2.125 0.90625q0.765625 0.90625 0.765625 2.59375l0 0.5l-4.765625 0q0.015625 1.03125 0.59375 1.671875q0.59375 0.640625 1.484375 0.640625q0.640625 0 1.078125 -0.25q0.453125 -0.265625 0.78125 -0.6875l0.734375 0.5625q-0.875 1.359375 -2.65625 1.359375zm-0.140625 -6.3125q-0.734375 0 -1.234375 0.53125q-0.484375 0.53125 -0.609375 1.484375l3.53125 0l0 -0.078125q-0.046875 -0.921875 -0.5 -1.421875q-0.4375 -0.515625 -1.1875 -0.515625zm8.63916 6.1875q-0.109375 -0.203125 -0.171875 -0.734375q-0.84375 0.859375 -2.015625 0.859375q-1.03125 0 -1.703125 -0.578125q-0.671875 -0.59375 -0.671875 -1.5q0 -1.09375 0.828125 -1.703125q0.84375 -0.609375 2.359375 -0.609375l1.171875 0l0 -0.5625q0 -0.625 -0.375 -1.0q-0.375 -0.375 -1.109375 -0.375q-0.640625 0 -1.078125 0.328125q-0.4375 0.328125 -0.4375 0.78125l-1.203125 0q0 -0.515625 0.359375 -1.0q0.375 -0.5 1.015625 -0.78125q0.65625 -0.296875 1.421875 -0.296875q1.21875 0 1.90625 0.609375q0.6875 0.609375 0.71875 1.671875l0 3.25q0 0.96875 0.234375 1.53125l0 0.109375l-1.25 0zm-2.0 -0.921875q0.5625 0 1.0625 -0.28125q0.515625 -0.296875 0.734375 -0.765625l0 -1.453125l-0.9375 0q-2.21875 0 -2.21875 1.296875q0 0.5625 0.375 0.890625q0.390625 0.3125 0.984375 0.3125zm6.5310364 -7.828125l0 1.703125l1.3125 0l0 0.9375l-1.3125 0l0 4.359375q0 0.421875 0.171875 0.640625q0.171875 0.21875 0.59375 0.21875q0.21875 0 0.578125 -0.078125l0 0.96875q-0.46875 0.125 -0.921875 0.125q-0.8125 0 -1.21875 -0.484375q-0.40625 -0.484375 -0.40625 -1.390625l0 -4.359375l-1.28125 0l0 -0.9375l1.28125 0l0 -1.703125l1.203125 0zm5.63501 8.875q-1.421875 0 -2.328125 -0.9375q-0.890625 -0.9375 -0.890625 -2.515625l0 -0.21875q0 -1.046875 0.390625 -1.859375q0.40625 -0.828125 1.125 -1.296875q0.71875 -0.46875 1.5625 -0.46875q1.375 0 2.125 0.90625q0.765625 0.90625 0.765625 2.59375l0 0.5l-4.765625 0q0.015625 1.03125 0.59375 1.671875q0.59375 0.640625 1.484375 0.640625q0.640625 0 1.078125 -0.25q0.453125 -0.265625 0.78125 -0.6875l0.734375 0.5625q-0.875 1.359375 -2.65625 1.359375zm-0.140625 -6.3125q-0.734375 0 -1.234375 0.53125q-0.484375 0.53125 -0.609375 1.484375l3.53125 0l0 -0.078125q-0.046875 -0.921875 -0.5 -1.421875q-0.4375 -0.515625 -1.1875 -0.515625zm9.391815 -3.28125l3.09375 7.71875l3.09375 -7.71875l1.625 0l0 9.46875l-1.25 0l0 -3.6875l0.109375 -3.984375l-3.109375 7.671875l-0.953125 0l-3.109375 -7.65625l0.125 3.96875l0 3.6875l-1.25 0l0 -9.46875l1.625 0zm11.276703 8.453125l4.484375 0l0 1.015625l-5.75 0l0 -9.46875l1.265625 0l0 8.453125z" fill-rule="nonzero"/><path fill="#666666" d="m270.74612 34.75706l0.03125 0.78125q0.765625 -0.90625 2.09375 -0.90625q1.46875 0 2.0 1.125q0.359375 -0.5 0.921875 -0.8125q0.5625 -0.3125 1.328125 -0.3125q2.3125 0 2.359375 2.453125l0 4.71875l-1.203125 0l0 -4.640625q0 -0.765625 -0.34375 -1.140625q-0.34375 -0.375 -1.171875 -0.375q-0.65625 0 -1.109375 0.40625q-0.4375 0.40625 -0.515625 1.078125l0 4.671875l-1.203125 0l0 -4.609375q0 -1.546875 -1.5 -1.546875q-1.1875 0 -1.625 1.015625l0 5.140625l-1.203125 0l0 -7.046875l1.140625 0zm10.228516 3.46875q0 -1.046875 0.40625 -1.875q0.40625 -0.828125 1.125 -1.265625q0.734375 -0.453125 1.65625 -0.453125q1.4375 0 2.328125 1.0q0.890625 0.984375 0.890625 2.640625l0 0.09375q0 1.015625 -0.390625 1.84375q-0.390625 0.8125 -1.125 1.265625q-0.734375 0.453125 -1.6875 0.453125q-1.421875 0 -2.3125 -0.984375q-0.890625 -1.0 -0.890625 -2.640625l0 -0.078125zm1.203125 0.140625q0 1.171875 0.546875 1.875q0.546875 0.703125 1.453125 0.703125q0.921875 0 1.453125 -0.71875q0.546875 -0.71875 0.546875 -2.0q0 -1.171875 -0.546875 -1.890625q-0.546875 -0.71875 -1.46875 -0.71875q-0.890625 0 -1.4375 0.71875q-0.546875 0.703125 -0.546875 2.03125zm6.4293213 -0.140625q0 -1.625 0.765625 -2.609375q0.765625 -0.984375 2.0 -0.984375q1.25 0 1.96875 0.84375l0 -3.671875l1.203125 0l0 10.0l-1.109375 0l-0.0625 -0.75q-0.71875 0.875 -2.0 0.875q-1.234375 0 -2.0 -1.0q-0.765625 -1.0 -0.765625 -2.609375l0 -0.09375zm1.203125 0.140625q0 1.1875 0.484375 1.875q0.5 0.671875 1.375 0.671875q1.140625 0 1.671875 -1.03125l0 -3.234375q-0.546875 -1.0 -1.65625 -1.0q-0.890625 0 -1.390625 0.6875q-0.484375 0.6875 -0.484375 2.03125zm9.516602 3.5625q-1.421875 0 -2.328125 -0.9375q-0.890625 -0.9375 -0.890625 -2.515625l0 -0.21875q0 -1.046875 0.390625 -1.859375q0.40625 -0.828125 1.125 -1.296875q0.71875 -0.46875 1.5625 -0.46875q1.375 0 2.125 0.90625q0.765625 0.90625 0.765625 2.59375l0 0.5l-4.765625 0q0.015625 1.03125 0.59375 1.671875q0.59375 0.640625 1.484375 0.640625q0.640625 0 1.078125 -0.25q0.453125 -0.265625 0.78125 -0.6875l0.734375 0.5625q-0.875 1.359375 -2.65625 1.359375zm-0.140625 -6.3125q-0.734375 0 -1.234375 0.53125q-0.484375 0.53125 -0.609375 1.484375l3.53125 0l0 -0.078125q-0.046875 -0.921875 -0.5 -1.421875q-0.4375 -0.515625 -1.1875 -0.515625zm5.5923157 6.1875l-1.203125 0l0 -10.0l1.203125 0l0 10.0z" fill-rule="nonzero"/></g></svg>
