<svg version="1.1" viewBox="0.0 0.0 356.0 139.0" fill="none" stroke="none" stroke-linecap="square" stroke-miterlimit="10" xmlns:xlink="http://www.w3.org/1999/xlink" xmlns="http://www.w3.org/2000/svg"><clipPath id="p.0"><path d="m0 0l356.0 0l0 139.0l-356.0 0l0 -139.0z" clip-rule="nonzero"/></clipPath><g clip-path="url(#p.0)"><path fill="#000000" fill-opacity="0.0" d="m0 0l356.0 0l0 139.0l-356.0 0z" fill-rule="evenodd"/><path fill="#33cccc" fill-opacity="0.3569" d="m45.32887 30.451605l-0.9677315 0.28673363l-0.9407692 0.33709717l-0.9109268 0.38308525l-0.87905884 0.4206848l-0.849102 0.46616936l-0.8164177 0.50756073l-0.78338623 0.548378l-0.7489929 0.5812378l-0.7158394 0.62249374l-0.67744446 0.6539726l-0.6455841 0.6915741l-0.603302 0.72218704l-0.569252 0.7511101l-0.53097534 0.7830963l-0.49203873 0.8146591l-0.4479866 0.8369522l-0.41004944 0.8650093l-0.36500168 0.8908081l-0.32522583 0.9107628l-0.27993774 0.9364929l-0.23664093 0.9552078l-0.18921661 0.97299194l-0.14574242 0.99142075l-0.09479332 1.0079613l-0.048425674 1.0220184l-0.0021190643 1.0358505l0.048070908 1.0488205l0.10233116 1.0606308l0.15023041 1.0664368l0.20060349 1.079113l0.25762558 1.086113l0.14970398 0.54291916l0.15684128 0.53710175l0.37096405 1.0538902l0.42878723 1.0336609l0.48538208 1.0099945l0.54208374 0.98581696l0.58996964 0.9606018l0.63685226 0.93187714l0.6806717 0.9078102l0.72367096 0.8799591l0.756546 0.84739685l0.795784 0.82084656l0.8199539 0.78674316l0.84770966 0.7516098l0.8772392 0.72000885l0.8922844 0.6847l0.90787125 0.6494751l0.92585754 0.60907745l0.9335556 0.5761032l0.94172287 0.5311432l0.94348145 0.4917984l0.94499207 0.4525299l0.9406929 0.40733337l0.9333191 0.36679077l0.92383575 0.31880188l0.914711 0.27119446l0.8925781 0.22324371l0.8752632 0.17771912l0.8485451 0.12728119l0.826107 0.079193115l0.79351044 0.022613525l0.7621918 -0.026741028l0.7255287 -0.08216095l0.34580612 -0.06349945l0.024448395 0.086128235l0.07716751 0.15261841l0.047618866 0.04851532l0.1453743 0.10977936l-0.014507294 0.023544312l-0.07207489 0.23767853l-0.04537964 0.2570877l-0.007850647 0.18080902l0.02999878 0.16579437l0.07312393 0.1383667l0.060333252 0.048690796l0.012992859 0.015731812l0.12576294 0.115348816l0.09854889 0.13871765l0.038433075 0.10536957l0.007171631 0.114486694l-0.04792404 0.1142807l-0.048618317 0.05266571l-0.0015144348 0.039276123l0.062877655 0.1914978l0.083244324 0.08480835l0.08382797 0.042243958l0.11022568 0.015083313l0.13726807 -0.0079956055l0.16932678 -0.04434967l0.208107 -0.08616638l0.24907303 -0.13665771l0.29133224 -0.19532776l0.33895874 -0.251503l0.38630295 -0.3232193l0.2190094 -0.19798279l0.017333984 -0.028137207l0.0804863 -0.17801666l0.0338974 -0.1491394l-0.014762878 -0.112091064l-0.02829361 -0.06964111l-0.051662445 -0.0627594l-0.0819931 -0.050346375l-0.11231995 -0.03794098l-0.14541626 -0.020713806l-0.1866417 -0.0011749268l-0.22539902 0.025245667l-0.13315964 0.022460938l-0.09677887 -0.0423584l-0.49938583 -0.1798935l-0.26379013 -0.06450653l-0.15330887 -0.018463135l-0.06292343 0.0022583008l0.0104599 -0.03779602l0.047649384 -0.23451996l0.024414062 -0.1971283l-0.0027656555 -0.099868774l0.3409462 -0.13980103l0.67972565 -0.33275604l0.67538834 -0.39356995l0.66667557 -0.4533844l0.65426636 -0.51166534l0.64408875 -0.5630188l0.63360596 -0.6145096l0.61553574 -0.66361237l0.60204315 -0.71022034l0.5822067 -0.7510071l0.5613022 -0.79550934l0.5419769 -0.8326416l0.5190582 -0.8687668l0.49332428 -0.9002838l0.4665146 -0.93553925l0.43759155 -0.961895l0.40901184 -0.9888191l0.37719727 -1.0108032l0.34591675 -1.0326996l0.3061447 -1.0526543l0.27278137 -1.0663834l0.23407745 -1.0826111l0.1938858 -1.090374l0.1487503 -1.1009865l0.109321594 -1.1051712l0.061180115 -1.1109085l0.015090942 -1.1094093l-0.0309906 -1.107914l-0.084732056 -1.1042404l-0.13419342 -1.0982323l-0.19063568 -1.0895271l-0.24292755 -1.0789223l-0.14665985 -0.5321808l-0.15782928 -0.54060745l-0.3455429 -1.0535393l-0.38624573 -1.0185204l-0.4213791 -0.97750473l-0.4544983 -0.9448776l-0.4892044 -0.9042206l-0.52021027 -0.86413956l-0.5522766 -0.8277893l-0.5803299 -0.79281235l-0.61039734 -0.74944687l-0.64146423 -0.7095909l-0.66457367 -0.6717529l-0.69163513 -0.63327026l-0.7175827 -0.5908432l-0.7359314 -0.55080795l-0.7621765 -0.50852966l-0.7851143 -0.4709816l-0.79858017 -0.4283123l-0.8232918 -0.38244438l-0.8380585 -0.34342957l-0.85487366 -0.2998047l-0.86940384 -0.26085854l-0.8856392 -0.21337509l-0.89487076 -0.17214394l-0.9114075 -0.124809265l-0.92033386 -0.08342934l-0.9289856 -0.038337708l-0.9384537 0.002960205l-0.94550323 0.051858902l-0.9542122 0.096731186l-0.9534378 0.1431675l-0.9621506 0.18804169l-0.47976685 0.11318779l-0.49732208 0.12599564z" fill-rule="evenodd"/><path fill="#33cccc" fill-opacity="0.3569" d="m106.7383 29.555536l-1.00914 0.011163712l-0.9969559 0.066978455l-0.98080444 0.11937904l-0.96042633 0.16425896l-0.9440155 0.21620369l-0.92388153 0.26495552l-0.9032593 0.3132553l-0.87914276 0.3542614l-0.8585129 0.40301704l-0.8301773 0.44379616l-0.8097992 0.48867607l-0.7774811 0.529686l-0.75263214 0.56682205l-0.7245407 0.6080551l-0.6957092 0.6490631l-0.6594238 0.68255234l-0.6305847 0.7199173l-0.5942993 0.75704956l-0.5614853 0.78712463l-0.52495575 0.8242569l-0.48841095 0.8541031l-0.4476471 0.88417435l-0.41086578 0.91379166l-0.36637115 0.94363785l-0.32561493 0.9698372l-0.28484344 0.99580765l-0.24010468 1.022007l-0.19113922 1.0482063l-0.14665222 1.0668869l-0.10165405 1.0928612l-0.048721313 1.1151886l-0.0042266846 0.5631714l0.0042266846 0.55953217l0.069099426 1.1151848l0.1302414 1.1115417l0.19114685 1.1042519l0.2522812 1.0965042l0.3052292 1.0853424l0.35816956 1.0705338l0.40688324 1.0593681l0.45585632 1.0443344l0.4963684 1.022007l0.5413513 1.0071983l0.5739212 0.980999l0.6102066 0.95480347l0.6472397 0.9324722l0.6713486 0.90262604l0.695961 0.87301636l0.72428894 0.83906555l0.74069977 0.80944824l0.76083374 0.76844025l0.7732544 0.7310791l0.78543854 0.69371796l0.79364014 0.6490631l0.7976227 0.6080551l0.80158997 0.5593033l0.8058243 0.5110016l0.79761505 0.4588318l0.793396 0.41030884l0.781456 0.3544922l0.77301025 0.3020935l0.75710297 0.23875427l0.740448 0.18271637l0.72032166 0.119377136l0.34996796 0.033485413l0 0.089538574l0.032562256 0.16790009l0.032554626 0.059692383l0.10986328 0.1453476l-0.020378113 0.018684387l-0.13422394 0.20890808l-0.113838196 0.23488617l-0.056915283 0.17177582l-0.016410828 0.16767883l0.032562256 0.15309906l0.04473877 0.063331604l0.008201599 0.018684387l0.08948517 0.1453476l0.056915283 0.16038513l0.0082092285 0.11186218l-0.024360657 0.112083435l-0.077301025 0.096824646l-0.061149597 0.037368774l-0.012176514 0.037361145l0.008201599 0.20139313l0.056922913 0.1043396l0.069099426 0.063560486l0.10190582 0.044654846l0.13421631 0.029846191l0.1749878 0.0036468506l0.22370148 -0.025970459l0.27689362 -0.06333923l0.33355713 -0.10821533l0.39470673 -0.14922333l0.45983124 -0.20526123l0.2647171 -0.13054657l0.024353027 -0.022323608l0.12602234 -0.14922333l0.07332611 -0.13418579l0.016403198 -0.11186218l-0.008201599 -0.07472229l-0.032562256 -0.07450104l-0.06512451 -0.07085419l-0.09767914 -0.06720734l-0.13422394 -0.059684753l-0.17920685 -0.05217743l-0.22370148 -0.037361145l-0.13422394 -0.014808655l-0.08152008 -0.06720734l-0.43125153 -0.30960846l-0.23612976 -0.13418579l-0.14241791 -0.059692383l-0.061149597 -0.015029907l0.020385742 -0.033493042l0.10986328 -0.21255493l0.077301025 -0.18294525l0.024604797 -0.096824646l0.366127 -0.041236877l0.7446747 -0.13418579l0.75710297 -0.19387054l0.7650528 -0.25379944l0.76903534 -0.31324768l0.773262 -0.36543274l0.7772293 -0.4178238l0.773262 -0.4699936l0.77301025 -0.51852417l0.7650604 -0.5631714l0.75710297 -0.61170197l0.7486496 -0.65270996l0.7364731 -0.69371796l0.720314 -0.7310791l0.7041626 -0.77230835l0.6835327 -0.80558014l0.6633911 -0.83929443l0.63879395 -0.8691406l0.6146774 -0.89875793l0.58187103 -0.9288254l0.55353546 -0.9511528l0.52072906 -0.97735596l0.48418427 -0.99580765l0.44367218 -1.018364l0.40689087 -1.0331688l0.36214447 -1.0518532l0.3174057 -1.063015l0.27266693 -1.0741768l0.2199707 -1.0853424l0.17076111 -1.09309l0.114089966 -1.1001472l0.060890198 -1.1042519l0.0042266846 -0.5520134l-0.0042266846 -0.5631714l-0.04473877 -1.1078987l-0.09345245 -1.0853424l-0.13845062 -1.0554962l-0.17920685 -1.0331688l-0.22370148 -1.0035553l-0.26446533 -0.9734802l-0.3052292 -0.9472809l-0.34175873 -0.9213104l-0.3825302 -0.8878212l-0.42329407 -0.857975l-0.4558487 -0.82790375l-0.4923935 -0.79828644l-0.52893066 -0.76457214l-0.5575104 -0.7310791l-0.5942993 -0.6975899l-0.6266098 -0.6677437l-0.6512146 -0.63038254l-0.6875076 -0.5930176l-0.7123642 -0.55953217l-0.740448 -0.5221634l-0.7650604 -0.48867798l-0.79364014 -0.447443l-0.8137741 -0.41030693l-0.8426056 -0.36929703l-0.8624878 -0.33193588l-0.8831253 -0.2909298l-0.9035034 -0.2537918l-0.92362976 -0.20868492l-0.9442673 -0.1679039l-0.95619965 -0.12302399l-0.9768219 -0.08224487l-0.4923935 -0.022325516l-0.5127716 -0.014808655z" fill-rule="evenodd"/><path fill="#000000" fill-opacity="0.0" d="m28.659416 56.645668c-7.953556 23.860672 -4.485279 50.70588 0 75.45406" fill-rule="evenodd"/><path stroke="#b7b7b7" stroke-width="1.0" stroke-linejoin="round" stroke-linecap="butt" d="m28.659416 56.645668c-7.953556 23.860672 -4.485279 50.70588 0 75.45406" fill-rule="evenodd"/><path fill="#000000" fill-opacity="0.0" d="m57.54331 74.11024c1.4399414 15.907135 1.8068542 32.022545 0.22309494 47.916008" fill-rule="evenodd"/><path stroke="#b7b7b7" stroke-width="1.0" stroke-linejoin="round" stroke-linecap="butt" d="m57.54331 74.11024c1.4399414 15.907135 1.8068542 32.022545 0.22309494 47.916008" fill-rule="evenodd"/><path fill="#000000" fill-opacity="0.0" d="m74.559494 56.422573c-4.3568497 19.567608 1.823616 40.080128 4.0288696 60.005245" fill-rule="evenodd"/><path stroke="#b7b7b7" stroke-width="1.0" stroke-linejoin="round" stroke-linecap="butt" d="m74.559494 56.422573c-4.3568497 19.567608 1.823616 40.080128 4.0288696 60.005245" fill-rule="evenodd"/><path fill="#000000" fill-opacity="0.0" d="m107.24672 74.78215c0 12.254257 0.87324524 24.75782 -1.7900238 36.719162" fill-rule="evenodd"/><path stroke="#b7b7b7" stroke-width="1.0" stroke-linejoin="round" stroke-linecap="butt" d="m107.24672 74.78215c0 12.254257 0.87324524 24.75782 -1.7900238 36.719162" fill-rule="evenodd"/><path fill="#000000" fill-opacity="0.0" d="m132.09964 61.12336c-5.8103027 19.790474 -3.1338654 41.172127 -3.1338654 61.797897" fill-rule="evenodd"/><path stroke="#b7b7b7" stroke-width="1.0" stroke-linejoin="round" stroke-linecap="butt" d="m132.09964 61.12336c-5.8103027 19.790474 -3.1338654 41.172127 -3.1338654 61.797897" fill-rule="evenodd"/><path fill="#000000" fill-opacity="0.0" d="m156.05794 64.931755c-1.9042969 19.110107 2.9107513 38.33593 2.9107513 57.540688" fill-rule="evenodd"/><path stroke="#b7b7b7" stroke-width="1.0" stroke-linejoin="round" stroke-linecap="butt" d="m156.05794 64.931755c-1.9042969 19.110107 2.9107513 38.33593 2.9107513 57.540688" fill-rule="evenodd"/><path fill="#000000" fill-opacity="0.0" d="m175.08923 60.677166c0 22.519146 4.7007904 44.874554 4.7007904 67.39369" fill-rule="evenodd"/><path stroke="#b7b7b7" stroke-width="1.0" stroke-linejoin="round" stroke-linecap="butt" d="m175.08923 60.677166c0 22.519146 4.7007904 44.874554 4.7007904 67.39369" fill-rule="evenodd"/><path fill="#000000" fill-opacity="0.0" d="m208.00262 70.97638c-1.8147583 15.3882675 -2.0462494 30.92791 -3.582672 46.34646" fill-rule="evenodd"/><path stroke="#b7b7b7" stroke-width="1.0" stroke-linejoin="round" stroke-linecap="butt" d="m208.00262 70.97638c-1.8147583 15.3882675 -2.0462494 30.92791 -3.582672 46.34646" fill-rule="evenodd"/><path fill="#000000" fill-opacity="0.0" d="m239.79446 58.884514c-5.2678375 14.777184 -2.9452515 32.137993 2.015747 47.020996" fill-rule="evenodd"/><path stroke="#b7b7b7" stroke-width="1.0" stroke-linejoin="round" stroke-linecap="butt" d="m239.79446 58.884514c-5.2678375 14.777184 -2.9452515 32.137993 2.015747 47.020996" fill-rule="evenodd"/><path fill="#000000" fill-opacity="0.0" d="m268.23096 67.84252c0 14.267113 1.7926636 28.496666 1.7926636 42.76378" fill-rule="evenodd"/><path stroke="#b7b7b7" stroke-width="1.0" stroke-linejoin="round" stroke-linecap="butt" d="m268.23096 67.84252c0 14.267113 1.7926636 28.496666 1.7926636 42.76378" fill-rule="evenodd"/><path fill="#000000" fill-opacity="0.0" d="m285.91977 59.55643c0 16.944897 -0.9880676 33.987125 0.89764404 50.82677" fill-rule="evenodd"/><path stroke="#b7b7b7" stroke-width="1.0" stroke-linejoin="round" stroke-linecap="butt" d="m285.91977 59.55643c0 16.944897 -0.9880676 33.987125 0.89764404 50.82677" fill-rule="evenodd"/><path fill="#000000" fill-opacity="0.0" d="m314.80313 66.49869c-1.0654297 16.910477 -1.8958435 34.111565 0.89501953 50.82415" fill-rule="evenodd"/><path stroke="#b7b7b7" stroke-width="1.0" stroke-linejoin="round" stroke-linecap="butt" d="m314.80313 66.49869c-1.0654297 16.910477 -1.8958435 34.111565 0.89501953 50.82415" fill-rule="evenodd"/><path fill="#33cccc" d="m28.616781 11.54091l-1.0091381 0.011163712l-0.9969597 0.06697941l-0.98080444 0.11937904l-0.9604225 0.16425896l-0.9440174 0.21620274l-0.92388344 0.26495647l-0.90325356 0.31325436l-0.87914467 0.35426235l-0.8585148 0.4030161l-0.8301773 0.44379616l-0.8097973 0.48867798l-0.7774849 0.529685l-0.7526283 0.5668192l-0.7245426 0.60805607l-0.6957092 0.6490631l-0.65942 0.68255424l-0.6305876 0.7199154l-0.59429836 0.75705147l-0.5614891 0.7871227l-0.524951 0.8242588l-0.4884138 0.8541031l-0.44764996 0.88417435l-0.41086388 0.91379166l-0.3663721 0.94363785l-0.32560825 0.9698353l-0.2848463 0.99580765l-0.24010563 1.0220089l-0.19113922 1.0482063l-0.1466484 1.0668888l-0.101659775 1.0928593l-0.0487175 1.1151867l-0.004224777 0.5631752l0.004224777 0.55953026l0.069099426 1.1151848l0.1302433 1.1115417l0.19114017 1.1042519l0.25228405 1.0965042l0.30522728 1.0853424l0.3581705 1.0705338l0.40688705 1.0593681l0.4558525 1.0443344l0.4963665 1.022007l0.5413561 1.0071983l0.57391644 0.980999l0.6102066 0.95479965l0.64724064 0.93247604l0.67135143 0.90262604l0.69595814 0.87301254l0.7242937 0.83906937l0.74069786 0.80944824l0.7608299 0.76844406l0.7732601 0.7310791l0.78543854 0.69371414l0.79364014 0.6490631l0.79761696 0.6080551l0.8015957 0.5593033l0.80582047 0.5110054l0.79761696 0.4588318l0.7933922 0.41030502l0.7814617 0.3544922l0.77301025 0.3020897l0.75710297 0.23875809l0.7404499 0.18271255l0.72031593 0.119377136l0.34996796 0.033489227l0 0.08953476l0.03256035 0.1679039l0.03256035 0.059688568l0.109861374 0.14535141l-0.02038002 0.018680573l-0.13422203 0.2089119l-0.113838196 0.23488617l-0.056919098 0.17177582l-0.016405106 0.16767883l0.03256035 0.15309525l0.044740677 0.06333542l0.0082035065 0.018680573l0.08947945 0.14535141l0.056919098 0.16038513l0.0082035065 0.11185837l-0.02435875 0.112091064l-0.077301025 0.096824646l-0.061145782 0.037361145l-0.012178421 0.037361145l0.008201599 0.20139694l0.056919098 0.1043396l0.069099426 0.0635643l0.10190773 0.04465103l0.13422012 0.029846191l0.17498398 0.003643036l0.22370148 -0.025970459l0.2768917 -0.06333542l0.33356285 -0.10821533l0.39470673 -0.14921951l0.45982933 -0.20526886l0.2647133 -0.13054276l0.02435875 -0.022327423l0.12601852 -0.14921951l0.0733242 -0.1341896l0.016403198 -0.11185837l-0.008201599 -0.074726105l-0.03256035 -0.07449722l-0.065122604 -0.07085419l-0.09768295 -0.06720734l-0.13422012 -0.059688568l-0.17920876 -0.0521698l-0.22370148 -0.03736496l-0.13422012 -0.014808655l-0.0815258 -0.06720734l-0.4312458 -0.30960846l-0.23612785 -0.13418579l-0.14242363 -0.059688568l-0.061145782 -0.015037537l0.020381927 -0.033489227l0.10986328 -0.21255875l0.077301025 -0.18294144l0.024606705 -0.096824646l0.3661232 -0.041233063l0.7446747 -0.1341896l0.75710297 -0.19387436l0.7650566 -0.2537918l0.76903534 -0.3132553l0.7732582 -0.3654251l0.77723694 -0.4178276l0.7732582 -0.4699936l0.77301025 -0.51852036l0.7650566 -0.5631752l0.75710297 -0.61170197l0.7486534 -0.65270996l0.73646927 -0.69371414l0.72031784 -0.7310791l0.7041588 -0.772316l0.6835327 -0.8055763l0.6633949 -0.83929443l0.63879013 -0.8691406l0.61468124 -0.8987541l0.58187103 -0.9288292l0.55353546 -0.9511566l0.52072525 -0.97735214l0.48418808 -0.99580765l0.44367218 -1.018364l0.40688705 -1.0331688l0.36214828 -1.0518532l0.3174057 -1.063015l0.27266693 -1.0741806l0.2199707 -1.0853386l0.17076111 -1.09309l0.11408615 -1.1001472l0.060894012 -1.1042519l0.0042266846 -0.5520115l-0.0042266846 -0.5631752l-0.04473877 -1.1078968l-0.09345627 -1.0853424l-0.13844681 -1.0554962l-0.17921066 -1.0331707l-0.22369766 -1.0035534l-0.26446533 -0.97348213l-0.30522537 -0.9472809l-0.34176636 -0.9213104l-0.3825302 -0.8878212l-0.42329025 -0.857975l-0.4558525 -0.82790375l-0.49238968 -0.79828644l-0.52893066 -0.76457024l-0.5575104 -0.7310791l-0.5942993 -0.69758797l-0.6266098 -0.6677456l-0.6512184 -0.63038254l-0.6875076 -0.5930195l-0.7123604 -0.5595293l-0.7404518 -0.5221672l-0.7650566 -0.48867702l-0.79364014 -0.4474411l-0.8137741 -0.41030693l-0.8426056 -0.36929893l-0.8624916 -0.33193588l-0.8831215 -0.2909279l-0.9034996 -0.25379276l-0.9236374 -0.20868492l-0.94426537 -0.1679039l-0.95619774 -0.12302399l-0.9768257 -0.08224392l-0.49238968 -0.02232647l-0.5127735 -0.014808655z" fill-rule="evenodd"/><path fill="#33cccc" d="m80.92947 11.777983l-1.0000916 -0.1338768l-0.9960785 -0.07688999l-0.9876404 -0.022713661l-0.973938 0.02462864l-0.96517944 0.07838917l-0.95228577 0.129529l-0.9388275 0.18028927l-0.92087555 0.22433376l-0.90748596 0.27554512l-0.8853226 0.31997204l-0.8716202 0.36731434l-0.84555817 0.41253662l-0.8263092 0.45285702l-0.804451 0.49769783l-0.78183746 0.5424223l-0.7507477 0.5807762l-0.7276077 0.621892l-0.6970444 0.6638527l-0.6689148 0.6983261l-0.6381073 0.7403221l-0.6062546 0.77510643l-0.57025146 0.81071854l-0.53812027 0.845314l-0.498394 0.88123703l-0.46183777 0.9130192l-0.42524338 0.94457436l-0.38474655 0.9769287l-0.34007263 1.0098896l-0.2987442 1.0347652l-0.2579689 1.0669289l-0.20879745 1.0966263l-0.08528519 0.55672836l-0.07639313 0.55433655l-0.09223175 1.1135464l-0.031200409 1.118721l0.030097961 1.1202507l0.09171295 1.1213646l0.14570618 1.1179237l0.20022202 1.1108704l0.25003052 1.1068192l0.30064392 1.0989723l0.34394836 1.082695l0.39059067 1.074501l0.42658615 1.0532455l0.46626282 1.0325356l0.5061188 1.0157547l0.53427505 0.98968506l0.5628891 0.96390533l0.59580994 0.9343834l0.6163101 0.90742874l0.6421356 0.86973953l0.6598129 0.83454895l0.67723846 0.7993202l0.6917877 0.7563095l0.70162964 0.71629715l0.71258545 0.66862106l0.72372437 0.62142944l0.72312164 0.5686226l0.72592163 0.5199928l0.72216034 0.4630432l0.721344 0.40997314l0.7147217 0.34500885l0.7063217 0.28715515l0.6955185 0.22158432l0.34144592 0.08340454l-0.012893677 0.08860397l0.008041382 0.17084122l0.023620605 0.06374359l0.087768555 0.15962219l-0.022857666 0.01556015l-0.16288757 0.18746948l-0.14646149 0.2161026l-0.08105469 0.16181946l-0.040382385 0.16358185l0.010169983 0.15618515l0.03514862 0.06910324l0.0054244995 0.01966858l0.067604065 0.1566925l0.033226013 0.16689682l-0.0079956055 0.11187744l-0.040245056 0.107429504l-0.090423584 0.0847168l-0.06587982 0.028194427l-0.017433167 0.03522873l-0.020889282 0.20048141l0.041290283 0.11143494l0.05921936 0.072826385l0.0943985 0.058826447l0.12850952 0.04880905l0.17260742 0.02873993l0.2250824 0.00642395l0.28308868 -0.022914886l0.3456192 -0.059188843l0.41203308 -0.090991974l0.48453522 -0.13710022l0.28071594 -0.09117508l0.027313232 -0.01859665l0.1461792 -0.12957764l0.09187317 -0.12226486l0.032341003 -0.10834503l0.0026474 -0.07513046l-0.021492004 -0.07839966l-0.054229736 -0.07947159l-0.0869751 -0.08053589l-0.12420654 -0.07834625l-0.1697998 -0.077365875l-0.21595764 -0.06910324l-0.13067627 -0.033931732l-0.07098389 -0.07821655l-0.38210297 -0.3683319l-0.21430969 -0.16670609l-0.13232422 -0.079524994l-0.05833435 -0.023658752l0.024986267 -0.030216217l0.13931274 -0.19457626l0.10282898 -0.16994476l0.03829193 -0.092285156l0.36819458 0.011772156l0.75613403 -0.025852203l0.77703094 -0.08313751l0.7935257 -0.14128876l0.80602264 -0.19956589l0.8177185 -0.25058746l0.82920074 -0.30187225l0.83277893 -0.3540764l0.8395233 -0.40213013l0.83807373 -0.447464l0.837204 -0.49663162l0.8347397 -0.53842545l0.828598 -0.58075714l0.81799316 -0.62005234l0.80794525 -0.6631813l0.79232025 -0.69906235l0.7772598 -0.73532104l0.7572098 -0.76839066l0.7376175 -0.8011627l0.7094879 -0.8356323l0.68466187 -0.86180115l0.65597534 -0.892437l0.6224823 -0.91594696l0.58563995 -0.944088l0.55137634 -0.9640236l0.50979614 -0.9889374l0.4671402 -1.0064087l0.42448425 -1.0238838l0.37394714 -1.0424957l0.32637024 -1.0572319l0.2713089 -1.072361l0.21927643 -1.084053l0.0836792 -0.545681l0.076919556 -0.55794525l0.11528015 -1.1028328l0.063827515 -1.0875092l0.015022278 -1.064436l-0.028533936 -1.0481949l-0.07682037 -1.0252743l-0.12147522 -1.0013676l-0.16558838 -0.9812927l-0.20548248 -0.9608402l-0.25063324 -0.9335499l-0.2952652 -0.90986824l-0.33181 -0.8847866l-0.37223053 -0.8607216l-0.41323853 -0.83260155l-0.44634247 -0.8035641l-0.4875641 -0.77570343l-0.5238342 -0.7508106l-0.55355835 -0.7173691l-0.59484863 -0.6856041l-0.62425995 -0.65603065l-0.6574402 -0.62309074l-0.68659973 -0.5934801l-0.7208252 -0.55677795l-0.74609375 -0.52291965l-0.7805252 -0.48647785l-0.80558014 -0.4523573l-0.83190155 -0.4147377l-0.85741425 -0.3809147l-0.8838272 -0.3391657l-0.9101181 -0.30177116l-0.9283829 -0.2590685l-0.95466614 -0.22167397l-0.48397827 -0.09280872l-0.5052185 -0.08829403z" fill-rule="evenodd"/><path fill="#33cccc" d="m128.89731 15.967484l-1.0061951 0.083600044l-0.98999786 0.13841248l-0.97006226 0.18952942l-0.94647217 0.2328453l-0.92633057 0.28349113l-0.90270233 0.33068466l-0.87861633 0.37739182l-0.8515701 0.41657448l-0.8274536 0.46373367l-0.79621124 0.5023842l-0.77262115 0.5457001l-0.73739624 0.58429146l-0.7098999 0.61955833l-0.6788788 0.65867996l-0.64712524 0.697525l-0.60849 0.7283306l-0.5770035 0.76353645l-0.5381012 0.79798126l-0.5031662 0.8256264l-0.46401978 0.860054l-0.42539215 0.8872051l-0.3825302 0.91428185l-0.3436737 0.9411907l-0.29710388 0.9677696l-0.25453186 0.99098206l-0.21196747 1.0139675l-0.16542053 1.0368938l-0.11466217 1.0595169l-0.06890106 1.0749588l-0.022125244 1.097641l0.032325745 1.1161156l0.03665924 0.56217957l0.044830322 0.5579376l0.14989471 1.1076546l0.21064758 1.0996284l0.27088165 1.0879822l0.33133698 1.0758629l0.3833542 1.0609245l0.435112 1.042347l0.4829178 1.0277138l0.53069305 1.0091934l0.56949615 0.9840088l0.61331177 0.96600723l0.64390564 0.9375305l0.67822266 0.90878296l0.7135544 0.8838501l0.7354431 0.8523407l0.75785065 0.82102585l0.7836685 0.78512573l0.7978821 0.75439835l0.8149948 0.71203995l0.8246918 0.6738701l0.83412933 0.6357193l0.8390732 0.59058l0.840065 0.54938126l0.8404999 0.50045395l0.8412018 0.45196152l0.8292389 0.40050507l0.82149506 0.3523903l0.805542 0.29755783l0.79330444 0.24589157l0.77282715 0.1838417l0.7521515 0.12912369l0.72746277 0.067379l0.35165405 0.008285522l0.006500244 0.08932495l0.044677734 0.1651802l0.036819458 0.05721283l0.12019348 0.13712692l-0.018981934 0.020103455l-0.118774414 0.21806717l-0.09655762 0.24251938l-0.044326782 0.17546844l-0.004211426 0.16846848l0.04360962 0.15040207l0.049240112 0.059978485l0.009552002 0.018047333l0.09983826 0.13859177l0.06843567 0.15592957l0.016296387 0.111011505l-0.016159058 0.1135788l-0.070114136 0.10215378l-0.058303833 0.04166794l-0.00944519 0.038150787l0.02281189 0.20034027l0.06436157 0.10001373l0.07356262 0.05845642l0.10493469 0.037231445l0.1361084 0.020137787l0.17488098 -0.008926392l0.221344 -0.04197693l0.27171326 -0.08306885l0.32499695 -0.13191986l0.38304138 -0.17721939l0.44396973 -0.23781586l0.2546692 -0.14924622l0.02268982 -0.024024963l0.11491394 -0.15792847l0.063430786 -0.13914108l0.008255005 -0.112781525l-0.01361084 -0.073963165l-0.037887573 -0.07199097l-0.070129395 -0.066013336l-0.10235596 -0.060035706l-0.13827515 -0.049915314l-0.18261719 -0.039180756l-0.22593689 -0.021213531l-0.13500977 -0.005138397l-0.08622742 -0.06119919l-0.45281982 -0.2779274l-0.24536133 -0.116924286l-0.14645386 -0.049324036l-0.06210327 -0.010612488l0.01789856 -0.034873962l0.09420776 -0.21995926l0.06385803 -0.18806839l0.017532349 -0.0983696l0.36235046 -0.06742859l0.7333679 -0.18735123l0.74142456 -0.24779129l0.74502563 -0.30814362l0.7446747 -0.3677559l0.7451019 -0.4201088l0.7452698 -0.4726715l0.7375183 -0.52443695l0.73373413 -0.572834l0.7225647 -0.61680984l0.71110535 -0.6646576l0.69970703 -0.70495987l0.68455505 -0.74500275l0.66574097 -0.7811165l0.6466217 -0.8210983l0.62361145 -0.8528023l0.6010742 -0.8849983l0.57437134 -0.9130058l0.5481415 -0.9408226l0.51322937 -0.9684677l0.48332214 -0.9887123l0.44869995 -1.0124931l0.41088867 -1.0282784l0.3688202 -1.0478745l0.33103943 -1.060009l0.28503418 -1.0754318l0.23957825 -1.083355l0.19413757 -1.0912857l0.14073181 -1.0986328l0.091049194 -1.1028328l0.033996582 -1.1058083l-0.019378662 -1.1060791l-0.035842896 -0.55104065l-0.04508972 -0.561573l-0.12506104 -1.1021309l-0.17202759 -1.0761299l-0.21476746 -1.0431252l-0.2538147 -1.0179214l-0.29606628 -0.9851799l-0.3345642 -0.9522476l-0.3733368 -0.92318153l-0.4079132 -0.8946476l-0.446167 -0.8583069l-0.48466492 -0.8256035l-0.51498413 -0.7932644l-0.5492859 -0.7610893l-0.5832977 -0.7248287l-0.6094055 -0.6893616l-0.64367676 -0.65330887l-0.67375183 -0.621212l-0.69558716 -0.5821686l-0.72909546 -0.5422859l-0.7514801 -0.5070877l-0.7767792 -0.46779633l-0.7989044 -0.43261528l-0.82444763 -0.38942337l-0.8418274 -0.35092735l-0.86763 -0.30794334l-0.8847656 -0.26923943l-0.90237427 -0.22684479l-0.9200134 -0.1883316l-0.9368286 -0.14188194l-0.9544678 -0.099713326l-0.96310425 -0.05408001l-0.98072815 -0.011912346l-0.4929657 0.013081551l-0.5127716 0.02204609z" fill-rule="evenodd"/><path fill="#33cccc" fill-opacity="0.3569" d="m151.59708 19.898932l-1.0038605 0.1038208l-0.98664856 0.15826035l-0.96580505 0.20893288l-0.94140625 0.2517357l-0.9203491 0.3019333l-0.895874 0.34861183l-0.8709259 0.39479065l-0.8431854 0.4333973l-0.8182068 0.48003006l-0.7862854 0.5180187l-0.76190186 0.5608196l-0.7259979 0.59867096l-0.6978607 0.6333523l-0.6661377 0.6718159l-0.6336975 0.70998573l-0.59451294 0.7399883l-0.5623932 0.7745304l-0.5228882 0.8081608l-0.4874878 0.8350792l-0.44770813 0.8686867l-0.4086151 0.8950367l-0.36528015 0.9212246l-0.3259735 0.94732666l-0.27893066 0.97294617l-0.23596191 0.9952812l-0.19302368 1.0173874l-0.14607239 1.0393562l-0.09492493 1.060936l-0.048934937 1.0754433l-0.0017547607 1.0971642l0.052978516 1.1145248l0.047058105 0.5609665l0.055130005 0.55656433l0.17030334 1.1036987l0.23085022 1.0944519l0.29084778 1.081604l0.35101318 1.0682716l0.40270996 1.0522995l0.45410156 1.0326958l0.50157166 1.0171089l0.5489807 0.9976425l0.58729553 0.97169876l0.6307373 0.95282364l0.6607666 0.92375183l0.6945343 0.8943405l0.7293701 0.8687134l0.7506714 0.8367958l0.7724762 0.8050499l0.7976074 0.7686615l0.8112335 0.7376709l0.8275604 0.6950035l0.8365326 0.65667343l0.84524536 0.6183624l0.84936523 0.5731621l0.8495941 0.5319748l0.84910583 0.48308563l0.848938 0.4346161l0.83599854 0.38344193l0.8273926 0.33552933l0.8104248 0.28106308l0.7972412 0.22968292l0.77563477 0.16810226l0.753952 0.113845825l0.72813416 0.05265808l0.35153198 0.0011825562l0.008148193 0.08911896l0.047714233 0.1641388l0.037857056 0.056427002l0.12261963 0.13458252l-0.018600464 0.020469666l-0.11463928 0.22028351l-0.09197998 0.24425507l-0.041046143 0.17621613l-0.0010681152 0.16841125l0.0463562 0.1493988l0.050323486 0.058937073l0.009857178 0.017837524l0.1023407 0.13645935l0.0712738 0.15441895l0.018341064 0.110588074l-0.014053345 0.11381531l-0.06816101 0.10347748l-0.05747986 0.042808533l-0.008728027 0.03830719l0.026489258 0.19971466l0.06617737 0.09863281l0.07460022 0.056922913l0.105545044 0.035079956l0.1363678 0.01737976l0.1745758 -0.012451172l0.22038269 -0.046401978l0.2699585 -0.08847809l0.3223114 -0.13835907l0.37945557 -0.1847992l0.43920898 -0.24656677l0.25170898 -0.15425873l0.022232056 -0.024459839l0.1118927 -0.16011047l0.060806274 -0.14030457l0.006149292 -0.112854004l-0.014968872 -0.07363129l-0.03919983 -0.07115936l-0.07128906 -0.06454468l-0.103393555 -0.057922363l-0.13908386 -0.047080994l-0.18319702 -0.035469055l-0.22616577 -0.01663971l-0.1349945 -0.0024108887l-0.08729553 -0.059410095l-0.45761108 -0.26856232l-0.24734497 -0.11187744l-0.14724731 -0.046325684l-0.06225586 -0.009353638l0.017242432 -0.035202026l0.09005737 -0.22167206l0.060317993 -0.18920135l0.015701294 -0.09864044l0.36082458 -0.07467651l0.7293091 -0.2019844l0.7362671 -0.2625351l0.73872375 -0.3229103l0.73727417 -0.38246155l0.73672485 -0.43478012l0.7359314 -0.4873047l0.7272186 -0.53886795l0.72254944 -0.58714676l0.7105713 -0.6308632l0.6982269 -0.6784363l0.6860962 -0.71847916l0.6702118 -0.7581787l0.6507416 -0.7938843l0.6308899 -0.8334465l0.6073303 -0.8646622l0.58421326 -0.89636993l0.5569763 -0.9238205l0.5302887 -0.95108414l0.49487305 -0.97800446l0.46463013 -0.99762344l0.4295807 -1.0206909l0.39151 -1.0356979l0.34910583 -1.0544319l0.31114197 -1.0657883l0.26487732 -1.0802765l0.21931458 -1.0872765l0.17375183 -1.0942764l0.120269775 -1.1005478l0.07054138 -1.1037407l0.0134887695 -1.1055603l-0.039871216 -1.1047554l-0.046035767 -0.5498581l-0.0554657 -0.5601883l-0.14538574 -1.0986824l-0.1918335 -1.0717545l-0.2339325 -1.0379143l-0.2724762 -1.0119438l-0.31410217 -0.9783783l-0.35194397 -0.94470024l-0.39015198 -0.91487503l-0.42417908 -0.8856678l-0.4617157 -0.8485851l-0.499588 -0.81513596l-0.5292816 -0.7822094l-0.56295776 -0.7493725l-0.59628296 -0.71245384l-0.6217041 -0.6764908l-0.65527344 -0.63977814l-0.68473816 -0.60710144l-0.70584106 -0.56764984l-0.73857117 -0.5271263l-0.7602844 -0.49150658l-0.7848358 -0.45173645l-0.80630493 -0.4161396l-0.8310089 -0.37246895l-0.84768677 -0.3336563l-0.8726654 -0.29018593l-0.88905334 -0.2511711l-0.90586853 -0.20845604l-0.9227905 -0.1696186l-0.9387207 -0.12286949l-0.9555664 -0.08038139l-0.9633484 -0.034612656l-0.98017883 0.0078754425l-0.49235535 0.023012161l-0.51194763 0.032367706z" fill-rule="evenodd"/><path fill="#33cccc" d="m184.77527 16.484747l-0.98605347 -0.21396446l-0.9866638 -0.15684891l-0.9826355 -0.10217857l-0.9727936 -0.053894997l-0.9684143 3.8719177E-4l-0.9596863 0.052392006l-0.9503784 0.10406113l-0.93603516 0.14940262l-0.9268341 0.2015171l-0.9083252 0.24757576l-0.89849854 0.2958622l-0.87615967 0.34302902l-0.86024475 0.3847618l-0.8420868 0.43120956l-0.8231354 0.477602l-0.7952728 0.5183296l-0.77549744 0.5611687l-0.7484436 0.60544777l-0.7231903 0.64206886l-0.6958618 0.6864033l-0.66693115 0.7236309l-0.6339264 0.76202583l-0.60469055 0.7990875l-0.5679779 0.838089l-0.53411865 0.87270546l-0.50019836 0.9071026l-0.46244812 0.942606l-0.42056274 0.9790516l-0.38139343 1.0071735l-0.343338 1.0425091l-0.2967224 1.076067l-0.12998962 0.5479584l-0.12094116 0.54629135l-0.18190002 1.1023178l-0.12149048 1.1123886l-0.0605011 1.1188507l8.239746E-4 1.1249237l0.05491638 1.1258392l0.109817505 1.1232033l0.1598053 1.1231766l0.21089172 1.1194344l0.2553711 1.1066971l0.30252075 1.1022911l0.3401184 1.0840111l0.3813324 1.0665588l0.42242432 1.053051l0.4526062 1.0293312l0.48320007 1.0059509l0.5184021 0.9791794l0.5410156 0.95396805l0.5697937 0.91848755l0.590271 0.8848381l0.6104889 0.85113525l0.6284485 0.8094444l0.64151 0.77035904l0.65626526 0.7237282l0.67118835 0.67759705l0.6748657 0.6249161l0.6815796 0.57668304l0.6824188 0.5196228l0.6858978 0.46666718l0.68455505 0.4013939l0.68084717 0.34306335l0.6753845 0.27684402l0.33361816 0.11061859l-0.020019531 0.087265015l-0.005783081 0.17090225l0.01838684 0.06542969l0.07460022 0.16614532l-0.024047852 0.01366806l-0.1775055 0.17370987l-0.16345215 0.2035675l-0.09387207 0.1547432l-0.053466797 0.15977097l-0.0024871826 0.15647125l0.029464722 0.071697235l0.0038146973 0.02003479l0.054718018 0.16160202l0.019638062 0.16900253l-0.01701355 0.1108551l-0.04878235 0.1038208l-0.09698486 0.07714462l-0.06794739 0.022792816l-0.020217896 0.03370285l-0.037017822 0.1981163l0.03215027 0.11437988l0.053146362 0.0773468l0.08934021 0.06622696l0.12414551 0.058994293l0.16973877 0.042541504l0.22383118 0.024528503l0.28404236 -3.4332275E-5l0.34928894 -0.031154633l0.4180603 -0.057495117l0.49404907 -0.09761047l0.28718567 -0.06825256l0.0287323 -0.016334534l0.1561737 -0.117362976l0.10145569 -0.11444855l0.040985107 -0.10536957l0.008712769 -0.07465744l-0.015090942 -0.0798645l-0.04763794 -0.08356857l-0.08018494 -0.08726883l-0.11747742 -0.08808136l-0.16300964 -0.09077835l-0.20967102 -0.086257935l-0.1275177 -0.044338226l-0.064437866 -0.083667755l-0.35112 -0.39784622l-0.20014954 -0.1833992l-0.12547302 -0.0899086l-0.056228638 -0.02827835l0.02734375 -0.02809906l0.15458679 -0.18269348l0.1162262 -0.1610794l0.04562378 -0.088890076l0.36605835 0.04138565l0.75579834 0.03513336l0.78125 -0.020271301l0.8023834 -0.07690048l0.8195648 -0.13396454l0.83532715 -0.18387604l0.85092163 -0.23405838l0.8587189 -0.28579712l0.8693085 -0.33314514l0.87153625 -0.37844086l0.8746338 -0.4275055l0.8755646 -0.46936035l0.8728485 -0.5120392l0.86546326 -0.5520592l0.8589325 -0.59584427l0.84625244 -0.6328621l0.8341675 -0.6702118l0.81684875 -0.7047844l0.7999878 -0.7390175l0.77471924 -0.7756424l0.75209045 -0.80371475l0.7259674 -0.8365593l0.69447327 -0.86269l0.66004944 -0.89369583l0.6274872 -0.9163246l0.5880585 -0.9445038l0.5469513 -0.9653511l0.50582886 -0.9861984l0.45698547 -1.0088234l0.41073608 -1.0273361l0.35707092 -1.0468445l0.3061676 -1.0626984l0.12748718 -0.53707886l0.12174988 -0.549839l0.20401001 -1.0897865l0.15148926 -1.0786552l0.10096741 -1.0595932l0.056259155 -1.0469131l0.0062561035 -1.0279617l-0.04017639 -1.0077324l-0.08578491 -0.9912796l-0.127182 -0.97410583l-0.17440796 -0.9505501l-0.22079468 -0.930542l-0.25926208 -0.9084873l-0.3014984 -0.88776207l-0.344635 -0.8630409l-0.37998962 -0.8367691l-0.42332458 -0.8123226l-0.46148682 -0.7904358l-0.4938202 -0.7595024l-0.5375519 -0.73117065l-0.5692444 -0.70406914l-0.60498047 -0.67391014l-0.6364441 -0.6467533l-0.67352295 -0.6129303l-0.70144653 -0.58122444l-0.7387085 -0.547678l-0.766449 -0.51569366l-0.79571533 -0.48032188l-0.82388306 -0.44866943l-0.8535919 -0.40918922l-0.88279724 -0.3740387l-0.90448 -0.3329544l-0.9336853 -0.2978058l-0.47491455 -0.13146973l-0.49647522 -0.12868309z" fill-rule="evenodd"/><path fill="#33cccc" fill-opacity="0.3569" d="m207.14775 25.222202l-1.00914 0.011163712l-0.9969635 0.06698036l-0.98080444 0.119377136l-0.9604187 0.16426086l-0.9440155 0.21620178l-0.92388916 0.26495743l-0.9032593 0.3132534l-0.87913513 0.3542633l-0.8585205 0.40301514l-0.8301697 0.44379616l-0.8097992 0.48867798l-0.77749634 0.529686l-0.7526245 0.56681824l-0.7245331 0.608057l-0.6957092 0.6490631l-0.6594238 0.68255234l-0.6305847 0.7199173l-0.5942993 0.75705147l-0.5614929 0.7871208l-0.5249481 0.8242607l-0.48841858 0.8541031l-0.4476471 0.88417435l-0.41085815 0.91379166l-0.36637878 0.94363785l-0.3256073 0.9698372l-0.28485107 0.99580765l-0.24009705 1.022007l-0.19114685 1.0482063l-0.14665222 1.0668869l-0.10165405 1.0928612l-0.048721313 1.1151848l-0.0042266846 0.5631752l0.0042266846 0.55952835l0.069107056 1.1151886l0.13023376 1.1115417l0.19114685 1.104248l0.25228882 1.096508l0.30522156 1.0853424l0.35816956 1.0705299l0.40689087 1.059372l0.45585632 1.0443344l0.49635315 1.022007l0.5413666 1.0071983l0.5739136 0.980999l0.610199 0.95479965l0.6472473 0.93247604l0.6713562 0.90262604l0.69595337 0.87301254l0.72428894 0.83906555l0.7407074 0.80945206l0.7608185 0.76844025l0.77326965 0.7310829l0.7854309 0.69371796l0.79364014 0.6490631l0.7976227 0.6080551l0.80158997 0.55929565l0.8058319 0.5110092l0.7976074 0.4588318l0.793396 0.41030884l0.7814636 0.35448456l0.77301025 0.3020935l0.75709534 0.23875427l0.740448 0.18271637l0.72032166 0.119377136l0.3499756 0.033493042l0 0.089530945l0.032546997 0.16790771l0.032562256 0.059684753l0.10986328 0.14535522l-0.020370483 0.018676758l-0.13423157 0.20891571l-0.11383057 0.23487854l-0.056930542 0.17178345l-0.016403198 0.1676712l0.032562256 0.15309906l0.04473877 0.063331604l0.0082092285 0.018684387l0.08947754 0.1453476l0.056915283 0.16038513l0.0082092285 0.11186218l-0.024353027 0.112091064l-0.077301025 0.096824646l-0.061157227 0.037361145l-0.012176514 0.037361145l0.0082092285 0.20139313l0.056915283 0.10434723l0.0690918 0.063560486l0.10191345 0.044654846l0.13421631 0.029838562l0.1749878 0.0036468506l0.2237091 -0.025970459l0.276886 -0.063331604l0.33355713 -0.10821533l0.39471436 -0.14922333l0.4598236 -0.20526886l0.26470947 -0.13053894l0.024368286 -0.022331238l0.12602234 -0.14922333l0.07331848 -0.13418579l0.016403198 -0.11186218l-0.0082092285 -0.07472229l-0.032546997 -0.07450104l-0.06512451 -0.07084656l-0.09768677 -0.06720734l-0.13421631 -0.059692383l-0.17921448 -0.0521698l-0.22369385 -0.037361145l-0.13423157 -0.014808655l-0.08152771 -0.06720734l-0.4312439 -0.3096161l-0.23612976 -0.13418579l-0.14241028 -0.059684753l-0.061157227 -0.015037537l0.020385742 -0.033493042l0.10986328 -0.21255493l0.077301025 -0.18293762l0.024612427 -0.096824646l0.36611938 -0.041236877l0.7446747 -0.13418579l0.75709534 -0.19387817l0.7650604 -0.2537918l0.76904297 -0.3132553l0.7732544 -0.3654251l0.77723694 -0.4178238l0.7732544 -0.47000122l0.77301025 -0.51851654l0.7650604 -0.563179l0.75709534 -0.61170197l0.7486572 -0.65270233l0.7364807 -0.69371796l0.7203064 -0.7310829l0.7041626 -0.77231216l0.6835327 -0.8055763l0.6633911 -0.83929443l0.63879395 -0.8691406l0.61468506 -0.89875793l0.5818634 -0.9288254l0.5535431 -0.9511566l0.52072144 -0.97735214l0.4841919 -0.99580765l0.44366455 -1.018364l0.40689087 -1.0331688l0.3621521 -1.0518532l0.31739807 -1.063015l0.27267456 -1.0741806l0.2199707 -1.0853386l0.17076111 -1.09309l0.11407471 -1.1001511l0.060897827 -1.104248l0.0042266846 -0.5520134l-0.0042266846 -0.5631752l-0.04473877 -1.1078949l-0.09346008 -1.0853424l-0.138443 -1.0554962l-0.17919922 -1.0331726l-0.2237091 -1.0035515l-0.26446533 -0.97348404l-0.30522156 -0.9472809l-0.34176636 -0.9213104l-0.38252258 -0.8878212l-0.42329407 -0.857975l-0.45585632 -0.82790375l-0.49238586 -0.79828644l-0.52893066 -0.7645683l-0.5575104 -0.7310791l-0.5942993 -0.6975899l-0.62661743 -0.6677437l-0.6512146 -0.63038254l-0.6875 -0.5930195l-0.7123718 -0.55953026l-0.740448 -0.5221672l-0.7650604 -0.48867607l-0.79364014 -0.4474411l-0.8137665 -0.41030693l-0.8426056 -0.36929893l-0.8624878 -0.33193588l-0.88313293 -0.2909279l-0.9035034 -0.25379372l-0.92362976 -0.20868492l-0.94425964 -0.1679039l-0.9562073 -0.12302399l-0.9768219 -0.082242966l-0.49238586 -0.022327423l-0.5127716 -0.014808655z" fill-rule="evenodd"/><path fill="#33cccc" d="m239.51442 14.042223l-1.00914 0.011162758l-0.9969635 0.06697941l-0.98080444 0.11937904l-0.9604187 0.16425896l-0.9440155 0.21620274l-0.92388916 0.26495647l-0.903244 0.31325436l-0.8791504 0.35426235l-0.85850525 0.4030161l-0.83018494 0.4437971l-0.8097992 0.48867607l-0.7774811 0.529686l-0.7526245 0.56682014l-0.72454834 0.6080551l-0.6957092 0.6490631l-0.6594238 0.68255424l-0.6305847 0.7199154l-0.5942993 0.75705147l-0.5614929 0.7871227l-0.5249481 0.8242588l-0.48841858 0.8541031l-0.4476471 0.88417435l-0.41085815 0.91379166l-0.36637878 0.94363785l-0.3256073 0.9698353l-0.28483582 0.99580956l-0.2401123 1.022007l-0.19113159 1.0482063l-0.14665222 1.0668888l-0.10166931 1.0928593l-0.048706055 1.1151848l-0.0042266846 0.5631752l0.0042266846 0.55953217l0.0690918 1.1151848l0.13024902 1.1115417l0.19113159 1.1042519l0.25228882 1.0965042l0.30522156 1.0853424l0.35816956 1.0705338l0.40689087 1.0593681l0.45585632 1.0443344l0.4963684 1.022007l0.5413513 1.0071983l0.5739136 0.980999l0.61021423 0.95479965l0.64723206 0.93247604l0.6713562 0.90262604l0.69595337 0.87301254l0.7243042 0.83906937l0.74069214 0.80944824l0.76083374 0.76844406l0.7732544 0.7310791l0.78544617 0.69371414l0.79364014 0.6490631l0.7976074 0.6080551l0.8016052 0.5593033l0.80581665 0.5110054l0.7976227 0.4588318l0.79338074 0.41030502l0.7814636 0.3544922l0.77301025 0.3020897l0.7571106 0.23875809l0.740448 0.18271255l0.7203064 0.119377136l0.3499756 0.033489227l0 0.08953476l0.032562256 0.1679039l0.032562256 0.059692383l0.10986328 0.1453476l-0.020385742 0.018680573l-0.13421631 0.20891571l-0.113845825 0.23488235l-0.056915283 0.17177582l-0.016403198 0.16767883l0.032562256 0.15309525l0.04473877 0.06333542l0.00819397 0.018680573l0.08947754 0.14535141l0.056930542 0.16038513l0.00819397 0.11185837l-0.024353027 0.112091064l-0.077301025 0.096824646l-0.061141968 0.037361145l-0.012176514 0.037361145l0.00819397 0.20139694l0.056915283 0.1043396l0.069107056 0.0635643l0.10189819 0.04465103l0.13423157 0.029846191l0.17497253 0.003643036l0.2237091 -0.025970459l0.276886 -0.06333542l0.3335724 -0.10821533l0.3946991 -0.14921951l0.45983887 -0.20526886l0.26470947 -0.13054276l0.024353027 -0.022327423l0.12602234 -0.14921951l0.07331848 -0.1341896l0.016403198 -0.11185837l-0.00819397 -0.074726105l-0.032562256 -0.07449722l-0.06512451 -0.07085419l-0.09768677 -0.06720734l-0.13421631 -0.059688568l-0.17921448 -0.0521698l-0.22369385 -0.03736496l-0.13421631 -0.014808655l-0.08152771 -0.06720734l-0.4312439 -0.30960846l-0.23612976 -0.13418579l-0.14242554 -0.059688568l-0.061141968 -0.015037537l0.020370483 -0.033489227l0.10986328 -0.21255875l0.077301025 -0.18294144l0.024612427 -0.096824646l0.36611938 -0.041233063l0.7446747 -0.13418579l0.7571106 -0.19387817l0.7650604 -0.2537918l0.7690277 -0.3132553l0.7732544 -0.3654251l0.77723694 -0.4178276l0.77326965 -0.4699936l0.77301025 -0.51852036l0.76504517 -0.5631752l0.7571106 -0.61170197l0.74864197 -0.65270996l0.7364807 -0.69371414l0.72032166 -0.7310791l0.70414734 -0.772316l0.6835327 -0.8055763l0.6634064 -0.83929443l0.6387787 -0.8691406l0.61468506 -0.8987541l0.58187866 -0.9288292l0.55352783 -0.9511566l0.52072144 -0.97735214l0.4841919 -0.99580765l0.44366455 -1.018364l0.40689087 -1.0331688l0.3621521 -1.0518532l0.31741333 -1.063015l0.27267456 -1.0741768l0.2199707 -1.0853424l0.17074585 -1.09309l0.11407471 -1.1001472l0.060913086 -1.1042519l0.004211426 -0.5520134l-0.004211426 -0.5631752l-0.04473877 -1.1078949l-0.09347534 -1.0853405l-0.13842773 -1.0554981l-0.17922974 -1.0331707l-0.22369385 -1.0035534l-0.26446533 -0.97348213l-0.3052063 -0.9472809l-0.34176636 -0.9213104l-0.38253784 -0.8878212l-0.4232788 -0.857975l-0.45587158 -0.82790375l-0.49238586 -0.79828644l-0.52893066 -0.7645683l-0.5575104 -0.731081l-0.5942993 -0.69758797l-0.6266022 -0.6677456l-0.65122986 -0.63038254l-0.6875 -0.5930195l-0.71235657 -0.55952835l-0.74046326 -0.5221672l-0.76504517 -0.48867798l-0.79364014 -0.4474411l-0.81378174 -0.41030693l-0.8426056 -0.36929893l-0.8624878 -0.33193588l-0.8831177 -0.2909279l-0.9035034 -0.25379276l-0.923645 -0.20868492l-0.94425964 -0.1679039l-0.956192 -0.12302399l-0.97683716 -0.08224392l-0.49238586 -0.02232647l-0.5127716 -0.014807701z" fill-rule="evenodd"/><path fill="#33cccc" fill-opacity="0.3569" d="m255.60184 24.304625l-0.96772766 0.28673172l-0.94078064 0.33709717l-0.9109192 0.38308525l-0.87905884 0.4206848l-0.84910583 0.46616745l-0.8164215 0.50756264l-0.78338623 0.5483799l-0.7489929 0.5812359l-0.7158356 0.62249374l-0.67744446 0.65397453l-0.6455841 0.6915722l-0.603302 0.72218704l-0.5692444 0.7511101l-0.53097534 0.7830982l-0.49205017 0.8146591l-0.4479828 0.8369522l-0.41004944 0.8650093l-0.3650055 0.8908043l-0.32522583 0.9107628l-0.27993774 0.9364929l-0.2366333 0.95521164l-0.18922424 0.97299194l-0.1457367 0.99142075l-0.0947876 1.0079613l-0.048431396 1.0220146l-0.0021209717 1.0358543l0.048080444 1.0488205l0.10232544 1.0606308l0.15022278 1.066433l0.2006073 1.0791168l0.2576294 1.086113l0.14970398 0.54291916l0.1568451 0.53710175l0.37095642 1.0538902l0.42878723 1.0336609l0.48538208 1.0099945l0.54208374 0.98581696l0.5899658 0.9606018l0.6368561 0.9318733l0.6806793 0.907814l0.72366333 0.8799553l0.756546 0.84740067l0.7957916 0.82084656l0.8199463 0.78673935l0.8477173 0.7516136l0.8772278 0.72000504l0.8922882 0.6847l0.90786743 0.6494789l0.92585754 0.60907745l0.93356323 0.5760994l0.9417267 0.5311394l0.94348145 0.49180603l0.9449768 0.4525299l0.94070435 0.40732574l0.9333191 0.3667984l0.9238281 0.31880188l0.91470337 0.27118683l0.8925781 0.22324371l0.87527466 0.17771912l0.84854126 0.12728882l0.82611084 0.079193115l0.79351807 0.022613525l0.7621765 -0.026741028l0.7255249 -0.08216095l0.3458252 -0.06349945l0.02444458 0.086128235l0.077178955 0.15261841l0.047607422 0.04851532l0.14538574 0.10977173l-0.014526367 0.02355194l-0.07208252 0.23767853l-0.04537964 0.2570877l-0.007843018 0.18080902l0.02999878 0.16578674l0.07312012 0.13837433l0.060333252 0.048690796l0.013000488 0.015724182l0.12576294 0.115356445l0.09854126 0.13871765l0.03845215 0.10536957l0.007171631 0.114486694l-0.047943115 0.1142807l-0.048614502 0.05266571l-0.0014953613 0.039276123l0.06286621 0.19149017l0.08325195 0.08480835l0.08383179 0.042251587l0.110198975 0.015083313l0.13726807 -0.0079956055l0.16934204 -0.0443573l0.20809937 -0.08615875l0.24908447 -0.13665771l0.2913208 -0.19532776l0.33895874 -0.251503l0.38632202 -0.32322693l0.21899414 -0.19797516l0.017333984 -0.028137207l0.08047485 -0.17801666l0.03390503 -0.1491394l-0.014770508 -0.112091064l-0.028289795 -0.06964111l-0.05166626 -0.0627594l-0.081970215 -0.050354004l-0.112335205 -0.03793335l-0.14541626 -0.020713806l-0.18664551 -0.0011749268l-0.22540283 0.025238037l-0.1331482 0.022468567l-0.09677124 -0.0423584l-0.49938965 -0.1798935l-0.26379395 -0.06450653l-0.15332031 -0.018470764l-0.062927246 0.0022583008l0.010467529 -0.03778839l0.047668457 -0.23451996l0.024414062 -0.1971283l-0.0027770996 -0.099876404l0.34094238 -0.13980103l0.679718 -0.3327484l0.6753845 -0.39356995l0.666687 -0.4533844l0.65426636 -0.511673l0.644104 -0.56301117l0.63360596 -0.6145134l0.61553955 -0.66360855l0.60202026 -0.71022415l0.58221436 -0.75100327l0.5613098 -0.7955055l0.54196167 -0.83264923l0.5190735 -0.86876297l0.49331665 -0.9002876l0.46652222 -0.93553925l0.43759155 -0.9618912l0.40899658 -0.98882294l0.37719727 -1.0107994l0.34591675 -1.0326996l0.30615234 -1.0526543l0.27279663 -1.0663834l0.23406982 -1.0826111l0.19387817 -1.090374l0.14874268 -1.1009865l0.109313965 -1.105175l0.061187744 -1.1109085l0.015106201 -1.1094093l-0.03100586 -1.1079102l-0.0847168 -1.1042404l-0.13421631 -1.0982323l-0.1906128 -1.0895271l-0.24291992 -1.0789261l-0.14666748 -0.532177l-0.15783691 -0.54061127l-0.34555054 -1.0535393l-0.38623047 -1.0185165l-0.42138672 -0.97750473l-0.4544983 -0.9448776l-0.48919678 -0.9042206l-0.52023315 -0.86413956l-0.5522461 -0.8277912l-0.5803528 -0.79281235l-0.6103821 -0.74944687l-0.6414795 -0.709589l-0.6645508 -0.67175484l-0.6916504 -0.63327026l-0.71759033 -0.5908413l-0.7359314 -0.55080795l-0.7621765 -0.5085316l-0.7850952 -0.4709816l-0.798584 -0.4283123l-0.8233032 -0.38244438l-0.8380432 -0.34342766l-0.8548889 -0.2998066l-0.86938477 -0.26085854l-0.88565063 -0.21337318l-0.89486694 -0.17214394l-0.9114075 -0.12481117l-0.9203491 -0.08342934l-0.9289856 -0.038337708l-0.93844604 0.002960205l-0.9454956 0.051858902l-0.95422363 0.096731186l-0.9534302 0.1431694l-0.9621582 0.18803978l-0.47976685 0.1131897l-0.49731445 0.12599564z" fill-rule="evenodd"/><path fill="#33cccc" d="m291.8271 14.279295l-1.0000916 -0.1338768l-0.99606323 -0.07688999l-0.9876404 -0.022713661l-0.973938 0.02462864l-0.96517944 0.07838917l-0.9522705 0.129529l-0.9388428 0.18028927l-0.9208679 0.22433376l-0.9075012 0.27554512l-0.88531494 0.31997204l-0.87161255 0.36731434l-0.84555054 0.41253757l-0.82632446 0.45285606l-0.80444336 0.49769783l-0.78182983 0.54242325l-0.75076294 0.5807743l-0.7276001 0.6218929l-0.697052 0.6638527l-0.6689148 0.6983261l-0.63809204 0.7403221l-0.6062622 0.77510643l-0.57025146 0.81071854l-0.53811646 0.845314l-0.4984131 0.88123703l-0.4618225 0.9130192l-0.42526245 0.94457436l-0.3847351 0.9769287l-0.3400879 1.0098896l-0.29873657 1.0347652l-0.2579651 1.0669289l-0.20880127 1.0966263l-0.08526611 0.55672836l-0.076416016 0.55433464l-0.09222412 1.1135483l-0.031188965 1.118721l0.030090332 1.1202507l0.09170532 1.1213646l0.14572144 1.1179237l0.20022583 1.1108704l0.25003052 1.1068192l0.30062866 1.0989723l0.34396362 1.082695l0.39059448 1.074501l0.4265747 1.0532455l0.46624756 1.0325356l0.50613403 1.0157547l0.53427124 0.98968506l0.5628967 0.96390533l0.5957947 0.9343834l0.616333 0.90742874l0.64212036 0.86973953l0.65982056 0.83454895l0.6772461 0.7993202l0.69177246 0.7563095l0.70162964 0.71629715l0.71258545 0.66862106l0.72372437 0.62142944l0.723114 0.5686226l0.72592163 0.5199928l0.72216797 0.4630432l0.721344 0.40997314l0.7147217 0.34500885l0.70632935 0.28715515l0.6955261 0.22158432l0.34143066 0.08340454l-0.012878418 0.08860397l0.008026123 0.17084122l0.023620605 0.06374359l0.087768555 0.15962219l-0.022857666 0.01556015l-0.16287231 0.18746948l-0.14648438 0.2161026l-0.08105469 0.16181946l-0.040374756 0.16358185l0.0101623535 0.15618515l0.03515625 0.06910324l0.005432129 0.01966858l0.067596436 0.1566925l0.033233643 0.16689682l-0.0079956055 0.11187744l-0.040252686 0.107429504l-0.090423584 0.0847168l-0.06588745 0.028194427l-0.017425537 0.03522873l-0.020874023 0.20048141l0.041290283 0.11143494l0.0592041 0.072826385l0.09439087 0.058826447l0.12850952 0.04880905l0.17260742 0.02873993l0.22509766 0.00642395l0.28308105 -0.022914886l0.34561157 -0.059188843l0.41204834 -0.090991974l0.4845276 -0.13710022l0.2807312 -0.09117508l0.027313232 -0.01859665l0.1461792 -0.12957764l0.09185791 -0.12226486l0.032348633 -0.10834503l0.0026245117 -0.07513046l-0.021484375 -0.07839966l-0.054229736 -0.07947159l-0.0869751 -0.08053589l-0.12420654 -0.07834625l-0.1697998 -0.077365875l-0.21594238 -0.06910324l-0.13067627 -0.033931732l-0.07098389 -0.07821655l-0.3821106 -0.3683319l-0.21432495 -0.16670609l-0.13232422 -0.079524994l-0.05831909 -0.023658752l0.024993896 -0.030216217l0.13931274 -0.19457626l0.10281372 -0.16994476l0.03829956 -0.092285156l0.36819458 0.011772156l0.75613403 -0.025852203l0.7770386 -0.08313751l0.79351807 -0.14128876l0.8060303 -0.19956589l0.8177185 -0.25058746l0.8291931 -0.30187225l0.8327942 -0.3540764l0.83950806 -0.40213013l0.83807373 -0.447464l0.8371887 -0.49663162l0.8347473 -0.53842545l0.8286133 -0.58075714l0.81799316 -0.62005234l0.8079529 -0.6631813l0.79229736 -0.69906235l0.7772827 -0.73532104l0.75720215 -0.76839066l0.73760986 -0.8011627l0.70947266 -0.8356323l0.6846924 -0.86180115l0.65597534 -0.892437l0.62246704 -0.91594696l0.5856323 -0.944088l0.5513916 -0.9640236l0.50979614 -0.9889374l0.46713257 -1.0064087l0.424469 -1.0238838l0.3739624 -1.0424957l0.32635498 -1.0572319l0.2713318 -1.072361l0.2192688 -1.084053l0.0836792 -0.545681l0.076934814 -0.55794525l0.11526489 -1.1028328l0.06384277 -1.0875092l0.015014648 -1.064434l-0.028533936 -1.0481949l-0.076812744 -1.0252762l-0.12149048 -1.0013676l-0.16558838 -0.9812927l-0.20547485 -0.9608402l-0.25064087 -0.9335499l-0.29525757 -0.90986824l-0.33181763 -0.8847847l-0.3722229 -0.8607235l-0.41323853 -0.83260155l-0.4463501 -0.8035641l-0.48754883 -0.77570343l-0.5238342 -0.7508106l-0.55358887 -0.7173672l-0.5948181 -0.685606l-0.6242676 -0.65603065l-0.6574402 -0.62309074l-0.686615 -0.59348106l-0.7208252 -0.55677795l-0.74609375 -0.5229187l-0.7805176 -0.4864769l-0.8055725 -0.45235825l-0.8319092 -0.4147377l-0.8574219 -0.3809147l-0.8838196 -0.3391657l-0.91012573 -0.30177116l-0.92837524 -0.2590685l-0.9546509 -0.22167397l-0.48397827 -0.09280777l-0.505249 -0.08829498z" fill-rule="evenodd"/><path fill="#33cccc" fill-opacity="0.3569" d="m320.36526 21.672274l-1.0000916 -0.1338768l-0.99609375 -0.07688904l-0.98760986 -0.022714615l-0.973938 0.024629593l-0.96520996 0.078388214l-0.9522705 0.12952995l-0.93881226 0.18028831l-0.92089844 0.22433472l-0.9074707 0.27554512l-0.88534546 0.31997108l-0.87161255 0.3673153l-0.84555054 0.41253662l-0.82629395 0.45285606l-0.8044739 0.49769974l-0.78182983 0.54242134l-0.75076294 0.5807762l-0.7276001 0.621891l-0.6970215 0.6638527l-0.6689148 0.6983261l-0.63812256 0.740324l-0.6062622 0.7751045l-0.57025146 0.81072044l-0.53811646 0.8453121l-0.49838257 0.88123703l-0.46185303 0.9130192l-0.42523193 0.94457626l-0.38476562 0.9769287l-0.34005737 1.0098877l-0.29873657 1.0347672l-0.2579651 1.0669289l-0.20880127 1.0966263l-0.08529663 0.55672836l-0.0763855 0.55433273l-0.09222412 1.1135483l-0.031219482 1.118721l0.03012085 1.1202507l0.09170532 1.1213684l0.14569092 1.1179199l0.20022583 1.1108704l0.25003052 1.1068192l0.30065918 1.0989723l0.3439331 1.082695l0.39059448 1.074501l0.4265747 1.0532494l0.46627808 1.0325317l0.5061035 1.0157547l0.53430176 0.98968506l0.5628662 0.96390533l0.5958252 0.9343834l0.6163025 0.90743256l0.64212036 0.8697357l0.65982056 0.83454895l0.6772461 0.7993202l0.691803 0.7563095l0.70162964 0.71630096l0.71258545 0.66861725l0.72372437 0.62143326l0.723114 0.5686226l0.72592163 0.519989l0.72216797 0.4630432l0.721344 0.40997314l0.7147217 0.34500885l0.7062988 0.28715515l0.6955261 0.22158813l0.34146118 0.08339691l-0.012908936 0.08860779l0.008056641 0.1708374l0.023620605 0.06375122l0.087768555 0.15962219l-0.022857666 0.015556335l-0.16290283 0.18746948l-0.14645386 0.2161026l-0.08105469 0.16181946l-0.040374756 0.16358185l0.0101623535 0.15618896l0.03515625 0.069099426l0.0054016113 0.01966858l0.06762695 0.1566925l0.033203125 0.16690063l-0.0079956055 0.11187744l-0.040222168 0.107421875l-0.0904541 0.084724426l-0.06585693 0.028190613l-0.017456055 0.035224915l-0.020874023 0.20048523l0.041290283 0.11143494l0.05923462 0.0728302l0.09439087 0.05882263l0.12850952 0.048812866l0.17260742 0.0287323l0.22506714 0.00642395l0.28308105 -0.022911072l0.3456421 -0.059188843l0.41201782 -0.09098816l0.4845276 -0.13710785l0.2807312 -0.091171265l0.027313232 -0.018592834l0.1461792 -0.12957764l0.09188843 -0.12226868l0.032318115 -0.10834503l0.0026550293 -0.07512665l-0.021484375 -0.07839966l-0.054229736 -0.0794754l-0.0869751 -0.08053589l-0.12420654 -0.07834625l-0.1697998 -0.07736969l-0.2159729 -0.069099426l-0.13067627 -0.033927917l-0.07098389 -0.07822418l-0.3821106 -0.36832428l-0.21429443 -0.1667099l-0.13232422 -0.07952118l-0.05834961 -0.023666382l0.024993896 -0.030212402l0.13931274 -0.19457245l0.10284424 -0.16994476l0.03829956 -0.092285156l0.36819458 0.011772156l0.75613403 -0.025856018l0.77700806 -0.08313751l0.7935486 -0.14128876l0.80599976 -0.19956207l0.8177185 -0.2505951l0.82922363 -0.30187225l0.8327637 -0.35407257l0.83950806 -0.40213013l0.83810425 -0.447464l0.8371887 -0.49663162l0.8347473 -0.53842545l0.82858276 -0.58075714l0.81799316 -0.62005234l0.8079529 -0.6631813l0.7923279 -0.69906235l0.7772522 -0.73532104l0.75720215 -0.76839066l0.7376404 -0.8011589l0.70947266 -0.83563614l0.68466187 -0.86179733l0.65597534 -0.8924408l0.62246704 -0.91594696l0.58566284 -0.944088l0.5513611 -0.9640236l0.50979614 -0.9889374l0.4671631 -1.0064087l0.424469 -1.0238838l0.37393188 -1.0424957l0.3263855 -1.0572319l0.27130127 -1.0723572l0.21929932 -1.0840569l0.0836792 -0.545681l0.0769043 -0.55794144l0.11529541 -1.1028366l0.063812256 -1.0875092l0.015014648 -1.064434l-0.028533936 -1.0481949l-0.076812744 -1.0252762l-0.12149048 -1.0013657l-0.16558838 -0.98129654l-0.20547485 -0.9608383l-0.25061035 -0.933548l-0.2952881 -0.90987015l-0.33181763 -0.8847847l-0.3722229 -0.8607216l-0.41323853 -0.83260345l-0.4463501 -0.8035641l-0.48754883 -0.77570343l-0.5238342 -0.7508106l-0.55355835 -0.7173672l-0.59484863 -0.6856041l-0.6242676 -0.65603256l-0.6574402 -0.62308884l-0.6865845 -0.59348106l-0.7208252 -0.55677795l-0.74609375 -0.5229206l-0.7805176 -0.4864769l-0.805603 -0.45235825l-0.83187866 -0.4147377l-0.8574219 -0.3809147l-0.8838196 -0.33916473l-0.91012573 -0.30177116l-0.92837524 -0.25906944l-0.9546814 -0.22167397l-0.48397827 -0.09280777l-0.5052185 -0.08829498z" fill-rule="evenodd"/></g></svg>
