<svg version="1.1" viewBox="0.0 0.0 356.0 139.0" fill="none" stroke="none" stroke-linecap="square" stroke-miterlimit="10" xmlns:xlink="http://www.w3.org/1999/xlink" xmlns="http://www.w3.org/2000/svg"><clipPath id="p.0"><path d="m0 0l356.0 0l0 139.0l-356.0 0l0 -139.0z" clip-rule="nonzero"/></clipPath><g clip-path="url(#p.0)"><path fill="#000000" fill-opacity="0.0" d="m0 0l356.0 0l0 139.0l-356.0 0z" fill-rule="evenodd"/><path fill="#33cccc" d="m9.70857 20.211771l13.754008 0l0 0c1.6509514 0 3.2342834 0.6558361 4.401682 1.8232346c1.1673985 1.1673985 1.8232365 2.7507305 1.8232365 4.401682l0 8.909084c0 1.18255615E-4 -9.918213E-5 2.1743774E-4 -2.193451E-4 2.1743774E-4l-26.203625 -2.1743774E-4l0 0c-1.206398E-4 0 -2.1839142E-4 -9.918213E-5 -2.1839142E-4 -2.2125244E-4l2.1839142E-4 -8.908863l0 0c0 -3.4379272 2.7869902 -6.2249165 6.2249165 -6.2249165z" fill-rule="evenodd"/><path stroke="#33cccc" stroke-width="1.0" stroke-linejoin="round" stroke-linecap="butt" d="m9.70857 20.211771l13.754008 0l0 0c1.6509514 0 3.2342834 0.6558361 4.401682 1.8232346c1.1673985 1.1673985 1.8232365 2.7507305 1.8232365 4.401682l0 8.909084c0 1.18255615E-4 -9.918213E-5 2.1743774E-4 -2.193451E-4 2.1743774E-4l-26.203625 -2.1743774E-4l0 0c-1.206398E-4 0 -2.1839142E-4 -9.918213E-5 -2.1839142E-4 -2.2125244E-4l2.1839142E-4 -8.908863l0 0c0 -3.4379272 2.7869902 -6.2249165 6.2249165 -6.2249165z" fill-rule="evenodd"/><path fill="#33cccc" d="m8.343614 30.644697l16.483921 0l0 15.134001l-16.483921 0z" fill-rule="evenodd"/><path stroke="#33cccc" stroke-width="1.0" stroke-linejoin="round" stroke-linecap="butt" d="m8.343614 30.644697l16.483921 0l0 15.134001l-16.483921 0z" fill-rule="evenodd"/><path fill="#33cccc" d="m8.343614 12.644771l0 0c0 -4.179139 3.690051 -7.5670004 8.2419615 -7.5670004l0 0c4.5519085 0 8.241961 3.3878613 8.241961 7.5670004l0 0c0 4.179139 -3.690052 7.5670004 -8.241961 7.5670004l0 0c-4.5519104 0 -8.2419615 -3.3878613 -8.2419615 -7.5670004z" fill-rule="evenodd"/><path stroke="#33cccc" stroke-width="1.0" stroke-linejoin="round" stroke-linecap="butt" d="m8.343614 12.644771l0 0c0 -4.179139 3.690051 -7.5670004 8.2419615 -7.5670004l0 0c4.5519085 0 8.241961 3.3878613 8.241961 7.5670004l0 0c0 4.179139 -3.690052 7.5670004 -8.241961 7.5670004l0 0c-4.5519104 0 -8.2419615 -3.3878613 -8.2419615 -7.5670004z" fill-rule="evenodd"/><path fill="#33cccc" d="m9.70857 64.28264l13.754008 0l0 0c1.6509514 0 3.2342834 0.655838 4.401682 1.8232346c1.1673985 1.1673965 1.8232365 2.7507324 1.8232365 4.40168l0 8.9090805c0 1.2207031E-4 -9.918213E-5 2.2125244E-4 -2.193451E-4 2.2125244E-4l-26.203625 -2.2125244E-4l0 0c-1.206398E-4 0 -2.1839142E-4 -9.1552734E-5 -2.1839142E-4 -2.1362305E-4l2.1839142E-4 -8.908867l0 0c0 -3.4379272 2.7869902 -6.2249146 6.2249165 -6.2249146z" fill-rule="evenodd"/><path stroke="#33cccc" stroke-width="1.0" stroke-linejoin="round" stroke-linecap="butt" d="m9.70857 64.28264l13.754008 0l0 0c1.6509514 0 3.2342834 0.655838 4.401682 1.8232346c1.1673985 1.1673965 1.8232365 2.7507324 1.8232365 4.40168l0 8.9090805c0 1.2207031E-4 -9.918213E-5 2.2125244E-4 -2.193451E-4 2.2125244E-4l-26.203625 -2.2125244E-4l0 0c-1.206398E-4 0 -2.1839142E-4 -9.1552734E-5 -2.1839142E-4 -2.1362305E-4l2.1839142E-4 -8.908867l0 0c0 -3.4379272 2.7869902 -6.2249146 6.2249165 -6.2249146z" fill-rule="evenodd"/><path fill="#33cccc" d="m8.343614 74.71556l16.483921 0l0 15.134003l-16.483921 0z" fill-rule="evenodd"/><path stroke="#33cccc" stroke-width="1.0" stroke-linejoin="round" stroke-linecap="butt" d="m8.343614 74.71556l16.483921 0l0 15.134003l-16.483921 0z" fill-rule="evenodd"/><path fill="#33cccc" d="m8.343614 56.715637l0 0c0 -4.179138 3.690051 -7.5670013 8.2419615 -7.5670013l0 0c4.5519085 0 8.241961 3.3878632 8.241961 7.5670013l0 0c0 4.179138 -3.690052 7.5670013 -8.241961 7.5670013l0 0c-4.5519104 0 -8.2419615 -3.3878632 -8.2419615 -7.5670013z" fill-rule="evenodd"/><path stroke="#33cccc" stroke-width="1.0" stroke-linejoin="round" stroke-linecap="butt" d="m8.343614 56.715637l0 0c0 -4.179138 3.690051 -7.5670013 8.2419615 -7.5670013l0 0c4.5519085 0 8.241961 3.3878632 8.241961 7.5670013l0 0c0 4.179138 -3.690052 7.5670013 -8.241961 7.5670013l0 0c-4.5519104 0 -8.2419615 -3.3878632 -8.2419615 -7.5670013z" fill-rule="evenodd"/><path fill="#33cccc" d="m9.70857 108.3535l13.754008 0l0 0c1.6509514 0 3.2342834 0.655838 4.401682 1.8232346c1.1673985 1.1674042 1.8232365 2.7507324 1.8232365 4.4016876l0 8.9090805c0 1.2207031E-4 -9.918213E-5 2.2125244E-4 -2.193451E-4 2.2125244E-4l-26.203625 -2.2125244E-4l0 0c-1.206398E-4 0 -2.1839142E-4 -9.918213E-5 -2.1839142E-4 -2.2125244E-4l2.1839142E-4 -8.908859l0 0c0 -3.4379272 2.7869902 -6.224922 6.2249165 -6.224922z" fill-rule="evenodd"/><path stroke="#33cccc" stroke-width="1.0" stroke-linejoin="round" stroke-linecap="butt" d="m9.70857 108.3535l13.754008 0l0 0c1.6509514 0 3.2342834 0.655838 4.401682 1.8232346c1.1673985 1.1674042 1.8232365 2.7507324 1.8232365 4.4016876l0 8.9090805c0 1.2207031E-4 -9.918213E-5 2.2125244E-4 -2.193451E-4 2.2125244E-4l-26.203625 -2.2125244E-4l0 0c-1.206398E-4 0 -2.1839142E-4 -9.918213E-5 -2.1839142E-4 -2.2125244E-4l2.1839142E-4 -8.908859l0 0c0 -3.4379272 2.7869902 -6.224922 6.2249165 -6.224922z" fill-rule="evenodd"/><path fill="#33cccc" d="m8.343614 118.78643l16.483921 0l0 15.133995l-16.483921 0z" fill-rule="evenodd"/><path stroke="#33cccc" stroke-width="1.0" stroke-linejoin="round" stroke-linecap="butt" d="m8.343614 118.78643l16.483921 0l0 15.133995l-16.483921 0z" fill-rule="evenodd"/><path fill="#33cccc" d="m8.343614 100.7865l0 0c0 -4.179138 3.690051 -7.5669937 8.2419615 -7.5669937l0 0c4.5519085 0 8.241961 3.3878555 8.241961 7.5669937l0 0c0 4.179146 -3.690052 7.5670013 -8.241961 7.5670013l0 0c-4.5519104 0 -8.2419615 -3.3878555 -8.2419615 -7.5670013z" fill-rule="evenodd"/><path stroke="#33cccc" stroke-width="1.0" stroke-linejoin="round" stroke-linecap="butt" d="m8.343614 100.7865l0 0c0 -4.179138 3.690051 -7.5669937 8.2419615 -7.5669937l0 0c4.5519085 0 8.241961 3.3878555 8.241961 7.5669937l0 0c0 4.179146 -3.690052 7.5670013 -8.241961 7.5670013l0 0c-4.5519104 0 -8.2419615 -3.3878555 -8.2419615 -7.5670013z" fill-rule="evenodd"/><path fill="#33cccc" d="m43.913296 20.211771l13.754005 0l0 0c1.6509514 0 3.2342834 0.6558361 4.401684 1.8232346c1.1673965 1.1673985 1.8232346 2.7507305 1.8232346 4.401682l0 8.909084c0 1.18255615E-4 -9.918213E-5 2.1743774E-4 -2.1743774E-4 2.1743774E-4l-26.203625 -2.1743774E-4l0 0c-1.2207031E-4 0 -2.1743774E-4 -9.918213E-5 -2.1743774E-4 -2.2125244E-4l2.1743774E-4 -8.908863l0 0c0 -3.4379272 2.7869911 -6.2249165 6.2249184 -6.2249165z" fill-rule="evenodd"/><path stroke="#33cccc" stroke-width="1.0" stroke-linejoin="round" stroke-linecap="butt" d="m43.913296 20.211771l13.754005 0l0 0c1.6509514 0 3.2342834 0.6558361 4.401684 1.8232346c1.1673965 1.1673985 1.8232346 2.7507305 1.8232346 4.401682l0 8.909084c0 1.18255615E-4 -9.918213E-5 2.1743774E-4 -2.1743774E-4 2.1743774E-4l-26.203625 -2.1743774E-4l0 0c-1.2207031E-4 0 -2.1743774E-4 -9.918213E-5 -2.1743774E-4 -2.2125244E-4l2.1743774E-4 -8.908863l0 0c0 -3.4379272 2.7869911 -6.2249165 6.2249184 -6.2249165z" fill-rule="evenodd"/><path fill="#33cccc" d="m42.54834 30.644697l16.483921 0l0 15.134001l-16.483921 0z" fill-rule="evenodd"/><path stroke="#33cccc" stroke-width="1.0" stroke-linejoin="round" stroke-linecap="butt" d="m42.54834 30.644697l16.483921 0l0 15.134001l-16.483921 0z" fill-rule="evenodd"/><path fill="#33cccc" d="m42.54834 12.644771l0 0c0 -4.179139 3.6900482 -7.5670004 8.241959 -7.5670004l0 0c4.5519104 0 8.241962 3.3878613 8.241962 7.5670004l0 0c0 4.179139 -3.690052 7.5670004 -8.241962 7.5670004l0 0c-4.5519104 0 -8.241959 -3.3878613 -8.241959 -7.5670004z" fill-rule="evenodd"/><path stroke="#33cccc" stroke-width="1.0" stroke-linejoin="round" stroke-linecap="butt" d="m42.54834 12.644771l0 0c0 -4.179139 3.6900482 -7.5670004 8.241959 -7.5670004l0 0c4.5519104 0 8.241962 3.3878613 8.241962 7.5670004l0 0c0 4.179139 -3.690052 7.5670004 -8.241962 7.5670004l0 0c-4.5519104 0 -8.241959 -3.3878613 -8.241959 -7.5670004z" fill-rule="evenodd"/><path fill="#33cccc" d="m43.913296 64.28264l13.754005 0l0 0c1.6509514 0 3.2342834 0.655838 4.401684 1.8232346c1.1673965 1.1673965 1.8232346 2.7507324 1.8232346 4.40168l0 8.9090805c0 1.2207031E-4 -9.918213E-5 2.2125244E-4 -2.1743774E-4 2.2125244E-4l-26.203625 -2.2125244E-4l0 0c-1.2207031E-4 0 -2.1743774E-4 -9.1552734E-5 -2.1743774E-4 -2.1362305E-4l2.1743774E-4 -8.908867l0 0c0 -3.4379272 2.7869911 -6.2249146 6.2249184 -6.2249146z" fill-rule="evenodd"/><path stroke="#33cccc" stroke-width="1.0" stroke-linejoin="round" stroke-linecap="butt" d="m43.913296 64.28264l13.754005 0l0 0c1.6509514 0 3.2342834 0.655838 4.401684 1.8232346c1.1673965 1.1673965 1.8232346 2.7507324 1.8232346 4.40168l0 8.9090805c0 1.2207031E-4 -9.918213E-5 2.2125244E-4 -2.1743774E-4 2.2125244E-4l-26.203625 -2.2125244E-4l0 0c-1.2207031E-4 0 -2.1743774E-4 -9.1552734E-5 -2.1743774E-4 -2.1362305E-4l2.1743774E-4 -8.908867l0 0c0 -3.4379272 2.7869911 -6.2249146 6.2249184 -6.2249146z" fill-rule="evenodd"/><path fill="#33cccc" d="m42.54834 74.71556l16.483921 0l0 15.134003l-16.483921 0z" fill-rule="evenodd"/><path stroke="#33cccc" stroke-width="1.0" stroke-linejoin="round" stroke-linecap="butt" d="m42.54834 74.71556l16.483921 0l0 15.134003l-16.483921 0z" fill-rule="evenodd"/><path fill="#33cccc" d="m42.54834 56.715637l0 0c0 -4.179138 3.6900482 -7.5670013 8.241959 -7.5670013l0 0c4.5519104 0 8.241962 3.3878632 8.241962 7.5670013l0 0c0 4.179138 -3.690052 7.5670013 -8.241962 7.5670013l0 0c-4.5519104 0 -8.241959 -3.3878632 -8.241959 -7.5670013z" fill-rule="evenodd"/><path stroke="#33cccc" stroke-width="1.0" stroke-linejoin="round" stroke-linecap="butt" d="m42.54834 56.715637l0 0c0 -4.179138 3.6900482 -7.5670013 8.241959 -7.5670013l0 0c4.5519104 0 8.241962 3.3878632 8.241962 7.5670013l0 0c0 4.179138 -3.690052 7.5670013 -8.241962 7.5670013l0 0c-4.5519104 0 -8.241959 -3.3878632 -8.241959 -7.5670013z" fill-rule="evenodd"/><path fill="#33cccc" d="m43.913296 108.3535l13.754005 0l0 0c1.6509514 0 3.2342834 0.655838 4.401684 1.8232346c1.1673965 1.1674042 1.8232346 2.7507324 1.8232346 4.4016876l0 8.9090805c0 1.2207031E-4 -9.918213E-5 2.2125244E-4 -2.1743774E-4 2.2125244E-4l-26.203625 -2.2125244E-4l0 0c-1.2207031E-4 0 -2.1743774E-4 -9.918213E-5 -2.1743774E-4 -2.2125244E-4l2.1743774E-4 -8.908859l0 0c0 -3.4379272 2.7869911 -6.224922 6.2249184 -6.224922z" fill-rule="evenodd"/><path stroke="#33cccc" stroke-width="1.0" stroke-linejoin="round" stroke-linecap="butt" d="m43.913296 108.3535l13.754005 0l0 0c1.6509514 0 3.2342834 0.655838 4.401684 1.8232346c1.1673965 1.1674042 1.8232346 2.7507324 1.8232346 4.4016876l0 8.9090805c0 1.2207031E-4 -9.918213E-5 2.2125244E-4 -2.1743774E-4 2.2125244E-4l-26.203625 -2.2125244E-4l0 0c-1.2207031E-4 0 -2.1743774E-4 -9.918213E-5 -2.1743774E-4 -2.2125244E-4l2.1743774E-4 -8.908859l0 0c0 -3.4379272 2.7869911 -6.224922 6.2249184 -6.224922z" fill-rule="evenodd"/><path fill="#33cccc" d="m42.54834 118.78643l16.483921 0l0 15.133995l-16.483921 0z" fill-rule="evenodd"/><path stroke="#33cccc" stroke-width="1.0" stroke-linejoin="round" stroke-linecap="butt" d="m42.54834 118.78643l16.483921 0l0 15.133995l-16.483921 0z" fill-rule="evenodd"/><path fill="#33cccc" d="m42.54834 100.7865l0 0c0 -4.179138 3.6900482 -7.5669937 8.241959 -7.5669937l0 0c4.5519104 0 8.241962 3.3878555 8.241962 7.5669937l0 0c0 4.179146 -3.690052 7.5670013 -8.241962 7.5670013l0 0c-4.5519104 0 -8.241959 -3.3878555 -8.241959 -7.5670013z" fill-rule="evenodd"/><path stroke="#33cccc" stroke-width="1.0" stroke-linejoin="round" stroke-linecap="butt" d="m42.54834 100.7865l0 0c0 -4.179138 3.6900482 -7.5669937 8.241959 -7.5669937l0 0c4.5519104 0 8.241962 3.3878555 8.241962 7.5669937l0 0c0 4.179146 -3.690052 7.5670013 -8.241962 7.5670013l0 0c-4.5519104 0 -8.241959 -3.3878555 -8.241959 -7.5670013z" fill-rule="evenodd"/><path fill="#33cccc" d="m78.11802 20.211771l13.754005 0l0 0c1.6509552 0 3.2342834 0.6558361 4.4016876 1.8232346c1.1673965 1.1673985 1.8232346 2.7507305 1.8232346 4.401682l0 8.909084c0 1.18255615E-4 -9.918213E-5 2.1743774E-4 -2.2125244E-4 2.1743774E-4l-26.20362 -2.1743774E-4l0 0c-1.2207031E-4 0 -2.2125244E-4 -9.918213E-5 -2.2125244E-4 -2.2125244E-4l2.2125244E-4 -8.908863l0 0c0 -3.4379272 2.7869873 -6.2249165 6.2249146 -6.2249165z" fill-rule="evenodd"/><path stroke="#33cccc" stroke-width="1.0" stroke-linejoin="round" stroke-linecap="butt" d="m78.11802 20.211771l13.754005 0l0 0c1.6509552 0 3.2342834 0.6558361 4.4016876 1.8232346c1.1673965 1.1673985 1.8232346 2.7507305 1.8232346 4.401682l0 8.909084c0 1.18255615E-4 -9.918213E-5 2.1743774E-4 -2.2125244E-4 2.1743774E-4l-26.20362 -2.1743774E-4l0 0c-1.2207031E-4 0 -2.2125244E-4 -9.918213E-5 -2.2125244E-4 -2.2125244E-4l2.2125244E-4 -8.908863l0 0c0 -3.4379272 2.7869873 -6.2249165 6.2249146 -6.2249165z" fill-rule="evenodd"/><path fill="#33cccc" d="m76.75306 30.644697l16.483925 0l0 15.134001l-16.483925 0z" fill-rule="evenodd"/><path stroke="#33cccc" stroke-width="1.0" stroke-linejoin="round" stroke-linecap="butt" d="m76.75306 30.644697l16.483925 0l0 15.134001l-16.483925 0z" fill-rule="evenodd"/><path fill="#33cccc" d="m76.75306 12.644771l0 0c0 -4.179139 3.6900558 -7.5670004 8.241966 -7.5670004l0 0c4.5519104 0 8.241959 3.3878613 8.241959 7.5670004l0 0c0 4.179139 -3.6900482 7.5670004 -8.241959 7.5670004l0 0c-4.5519104 0 -8.241966 -3.3878613 -8.241966 -7.5670004z" fill-rule="evenodd"/><path stroke="#33cccc" stroke-width="1.0" stroke-linejoin="round" stroke-linecap="butt" d="m76.75306 12.644771l0 0c0 -4.179139 3.6900558 -7.5670004 8.241966 -7.5670004l0 0c4.5519104 0 8.241959 3.3878613 8.241959 7.5670004l0 0c0 4.179139 -3.6900482 7.5670004 -8.241959 7.5670004l0 0c-4.5519104 0 -8.241966 -3.3878613 -8.241966 -7.5670004z" fill-rule="evenodd"/><path fill="#33cccc" d="m78.11802 64.28264l13.754005 0l0 0c1.6509552 0 3.2342834 0.655838 4.4016876 1.8232346c1.1673965 1.1673965 1.8232346 2.7507324 1.8232346 4.40168l0 8.9090805c0 1.2207031E-4 -9.918213E-5 2.2125244E-4 -2.2125244E-4 2.2125244E-4l-26.20362 -2.2125244E-4l0 0c-1.2207031E-4 0 -2.2125244E-4 -9.1552734E-5 -2.2125244E-4 -2.1362305E-4l2.2125244E-4 -8.908867l0 0c0 -3.4379272 2.7869873 -6.2249146 6.2249146 -6.2249146z" fill-rule="evenodd"/><path stroke="#33cccc" stroke-width="1.0" stroke-linejoin="round" stroke-linecap="butt" d="m78.11802 64.28264l13.754005 0l0 0c1.6509552 0 3.2342834 0.655838 4.4016876 1.8232346c1.1673965 1.1673965 1.8232346 2.7507324 1.8232346 4.40168l0 8.9090805c0 1.2207031E-4 -9.918213E-5 2.2125244E-4 -2.2125244E-4 2.2125244E-4l-26.20362 -2.2125244E-4l0 0c-1.2207031E-4 0 -2.2125244E-4 -9.1552734E-5 -2.2125244E-4 -2.1362305E-4l2.2125244E-4 -8.908867l0 0c0 -3.4379272 2.7869873 -6.2249146 6.2249146 -6.2249146z" fill-rule="evenodd"/><path fill="#33cccc" d="m76.75306 74.71556l16.483925 0l0 15.134003l-16.483925 0z" fill-rule="evenodd"/><path stroke="#33cccc" stroke-width="1.0" stroke-linejoin="round" stroke-linecap="butt" d="m76.75306 74.71556l16.483925 0l0 15.134003l-16.483925 0z" fill-rule="evenodd"/><path fill="#33cccc" d="m76.75306 56.715637l0 0c0 -4.179138 3.6900558 -7.5670013 8.241966 -7.5670013l0 0c4.5519104 0 8.241959 3.3878632 8.241959 7.5670013l0 0c0 4.179138 -3.6900482 7.5670013 -8.241959 7.5670013l0 0c-4.5519104 0 -8.241966 -3.3878632 -8.241966 -7.5670013z" fill-rule="evenodd"/><path stroke="#33cccc" stroke-width="1.0" stroke-linejoin="round" stroke-linecap="butt" d="m76.75306 56.715637l0 0c0 -4.179138 3.6900558 -7.5670013 8.241966 -7.5670013l0 0c4.5519104 0 8.241959 3.3878632 8.241959 7.5670013l0 0c0 4.179138 -3.6900482 7.5670013 -8.241959 7.5670013l0 0c-4.5519104 0 -8.241966 -3.3878632 -8.241966 -7.5670013z" fill-rule="evenodd"/><path fill="#33cccc" d="m78.11802 108.3535l13.754005 0l0 0c1.6509552 0 3.2342834 0.655838 4.4016876 1.8232346c1.1673965 1.1674042 1.8232346 2.7507324 1.8232346 4.4016876l0 8.9090805c0 1.2207031E-4 -9.918213E-5 2.2125244E-4 -2.2125244E-4 2.2125244E-4l-26.20362 -2.2125244E-4l0 0c-1.2207031E-4 0 -2.2125244E-4 -9.918213E-5 -2.2125244E-4 -2.2125244E-4l2.2125244E-4 -8.908859l0 0c0 -3.4379272 2.7869873 -6.224922 6.2249146 -6.224922z" fill-rule="evenodd"/><path stroke="#33cccc" stroke-width="1.0" stroke-linejoin="round" stroke-linecap="butt" d="m78.11802 108.3535l13.754005 0l0 0c1.6509552 0 3.2342834 0.655838 4.4016876 1.8232346c1.1673965 1.1674042 1.8232346 2.7507324 1.8232346 4.4016876l0 8.9090805c0 1.2207031E-4 -9.918213E-5 2.2125244E-4 -2.2125244E-4 2.2125244E-4l-26.20362 -2.2125244E-4l0 0c-1.2207031E-4 0 -2.2125244E-4 -9.918213E-5 -2.2125244E-4 -2.2125244E-4l2.2125244E-4 -8.908859l0 0c0 -3.4379272 2.7869873 -6.224922 6.2249146 -6.224922z" fill-rule="evenodd"/><path fill="#33cccc" d="m76.75306 118.78643l16.483925 0l0 15.133995l-16.483925 0z" fill-rule="evenodd"/><path stroke="#33cccc" stroke-width="1.0" stroke-linejoin="round" stroke-linecap="butt" d="m76.75306 118.78643l16.483925 0l0 15.133995l-16.483925 0z" fill-rule="evenodd"/><path fill="#33cccc" d="m76.75306 100.7865l0 0c0 -4.179138 3.6900558 -7.5669937 8.241966 -7.5669937l0 0c4.5519104 0 8.241959 3.3878555 8.241959 7.5669937l0 0c0 4.179146 -3.6900482 7.5670013 -8.241959 7.5670013l0 0c-4.5519104 0 -8.241966 -3.3878555 -8.241966 -7.5670013z" fill-rule="evenodd"/><path stroke="#33cccc" stroke-width="1.0" stroke-linejoin="round" stroke-linecap="butt" d="m76.75306 100.7865l0 0c0 -4.179138 3.6900558 -7.5669937 8.241966 -7.5669937l0 0c4.5519104 0 8.241959 3.3878555 8.241959 7.5669937l0 0c0 4.179146 -3.6900482 7.5670013 -8.241959 7.5670013l0 0c-4.5519104 0 -8.241966 -3.3878555 -8.241966 -7.5670013z" fill-rule="evenodd"/><path fill="#33cccc" d="m112.32275 20.211771l13.754005 0l0 0c1.6509476 0 3.2342834 0.6558361 4.4016876 1.8232346c1.1673889 1.1673985 1.8232269 2.7507305 1.8232269 4.401682l0 8.909084c0 1.18255615E-4 -9.1552734E-5 2.1743774E-4 -2.1362305E-4 2.1743774E-4l-26.203629 -2.1743774E-4l0 0c-1.2207031E-4 0 -2.1362305E-4 -9.918213E-5 -2.1362305E-4 -2.2125244E-4l2.1362305E-4 -8.908863l0 0c0 -3.4379272 2.786995 -6.2249165 6.224922 -6.2249165z" fill-rule="evenodd"/><path stroke="#33cccc" stroke-width="1.0" stroke-linejoin="round" stroke-linecap="butt" d="m112.32275 20.211771l13.754005 0l0 0c1.6509476 0 3.2342834 0.6558361 4.4016876 1.8232346c1.1673889 1.1673985 1.8232269 2.7507305 1.8232269 4.401682l0 8.909084c0 1.18255615E-4 -9.1552734E-5 2.1743774E-4 -2.1362305E-4 2.1743774E-4l-26.203629 -2.1743774E-4l0 0c-1.2207031E-4 0 -2.1362305E-4 -9.918213E-5 -2.1362305E-4 -2.2125244E-4l2.1362305E-4 -8.908863l0 0c0 -3.4379272 2.786995 -6.2249165 6.224922 -6.2249165z" fill-rule="evenodd"/><path fill="#33cccc" d="m110.95779 30.644697l16.483925 0l0 15.134001l-16.483925 0z" fill-rule="evenodd"/><path stroke="#33cccc" stroke-width="1.0" stroke-linejoin="round" stroke-linecap="butt" d="m110.95779 30.644697l16.483925 0l0 15.134001l-16.483925 0z" fill-rule="evenodd"/><path fill="#33cccc" d="m110.95779 12.644771l0 0c0 -4.179139 3.6900482 -7.5670004 8.241959 -7.5670004l0 0c4.5519104 0 8.241966 3.3878613 8.241966 7.5670004l0 0c0 4.179139 -3.6900558 7.5670004 -8.241966 7.5670004l0 0c-4.5519104 0 -8.241959 -3.3878613 -8.241959 -7.5670004z" fill-rule="evenodd"/><path stroke="#33cccc" stroke-width="1.0" stroke-linejoin="round" stroke-linecap="butt" d="m110.95779 12.644771l0 0c0 -4.179139 3.6900482 -7.5670004 8.241959 -7.5670004l0 0c4.5519104 0 8.241966 3.3878613 8.241966 7.5670004l0 0c0 4.179139 -3.6900558 7.5670004 -8.241966 7.5670004l0 0c-4.5519104 0 -8.241959 -3.3878613 -8.241959 -7.5670004z" fill-rule="evenodd"/><path fill="#33cccc" fill-opacity="0.3577" d="m180.7322 108.3535l13.754013 0l0 0c1.65094 0 3.2342834 0.655838 4.4016724 1.8232346c1.1674042 1.1674042 1.8232422 2.7507324 1.8232422 4.4016876l0 8.9090805c0 1.2207031E-4 -1.0681152E-4 2.2125244E-4 -2.2888184E-4 2.2125244E-4l-26.203613 -2.2125244E-4l0 0c-1.2207031E-4 0 -2.2888184E-4 -9.918213E-5 -2.2888184E-4 -2.2125244E-4l2.2888184E-4 -8.908859l0 0c0 -3.4379272 2.7869873 -6.224922 6.2249146 -6.224922z" fill-rule="evenodd"/><path fill="#33cccc" fill-opacity="0.3577" d="m179.36745 123.487946l16.472443 0l0 10.425186l-16.472443 0z" fill-rule="evenodd"/><path fill="#33cccc" fill-opacity="0.3577" d="m179.36723 100.7865l0 0c0 -4.179138 3.6900482 -7.5669937 8.241959 -7.5669937l0 0c4.5519104 0 8.241959 3.3878555 8.241959 7.5669937l0 0c0 4.179146 -3.6900482 7.5670013 -8.241959 7.5670013l0 0c-4.5519104 0 -8.241959 -3.3878555 -8.241959 -7.5670013z" fill-rule="evenodd"/><path fill="#d9d9d9" d="m214.93692 108.3535l13.753998 0l0 0c1.6509552 0 3.2342834 0.655838 4.4016876 1.8232346c1.1674042 1.1674042 1.8232422 2.7507324 1.8232422 4.4016876l0 8.9090805c0 1.2207031E-4 -1.0681152E-4 2.2125244E-4 -2.2888184E-4 2.2125244E-4l-26.203613 -2.2125244E-4l0 0c-1.2207031E-4 0 -2.2888184E-4 -9.918213E-5 -2.2888184E-4 -2.2125244E-4l2.2888184E-4 -8.908859l0 0c0 -3.4379272 2.7869873 -6.224922 6.2249146 -6.224922z" fill-rule="evenodd"/><path stroke="#d9d9d9" stroke-width="1.0" stroke-linejoin="round" stroke-linecap="butt" d="m214.93692 108.3535l13.753998 0l0 0c1.6509552 0 3.2342834 0.655838 4.4016876 1.8232346c1.1674042 1.1674042 1.8232422 2.7507324 1.8232422 4.4016876l0 8.9090805c0 1.2207031E-4 -1.0681152E-4 2.2125244E-4 -2.2888184E-4 2.2125244E-4l-26.203613 -2.2125244E-4l0 0c-1.2207031E-4 0 -2.2888184E-4 -9.918213E-5 -2.2888184E-4 -2.2125244E-4l2.2888184E-4 -8.908859l0 0c0 -3.4379272 2.7869873 -6.224922 6.2249146 -6.224922z" fill-rule="evenodd"/><path fill="#d9d9d9" d="m213.57196 118.78643l16.483917 0l0 15.133995l-16.483917 0z" fill-rule="evenodd"/><path stroke="#d9d9d9" stroke-width="1.0" stroke-linejoin="round" stroke-linecap="butt" d="m213.57196 118.78643l16.483917 0l0 15.133995l-16.483917 0z" fill-rule="evenodd"/><path fill="#d9d9d9" d="m213.57196 100.7865l0 0c0 -4.179138 3.6900482 -7.5669937 8.241959 -7.5669937l0 0c4.5519104 0 8.241959 3.3878555 8.241959 7.5669937l0 0c0 4.179146 -3.6900482 7.5670013 -8.241959 7.5670013l0 0c-4.5519104 0 -8.241959 -3.3878555 -8.241959 -7.5670013z" fill-rule="evenodd"/><path stroke="#d9d9d9" stroke-width="1.0" stroke-linejoin="round" stroke-linecap="butt" d="m213.57196 100.7865l0 0c0 -4.179138 3.6900482 -7.5669937 8.241959 -7.5669937l0 0c4.5519104 0 8.241959 3.3878555 8.241959 7.5669937l0 0c0 4.179146 -3.6900482 7.5670013 -8.241959 7.5670013l0 0c-4.5519104 0 -8.241959 -3.3878555 -8.241959 -7.5670013z" fill-rule="evenodd"/><path fill="#d9d9d9" d="m249.14165 20.211771l13.754013 0l0 0c1.65094 0 3.2342834 0.6558361 4.4016724 1.8232346c1.1673889 1.1673985 1.8232422 2.7507305 1.8232422 4.401682l0 8.909084c0 1.18255615E-4 -9.1552734E-5 2.1743774E-4 -2.1362305E-4 2.1743774E-4l-26.203644 -2.1743774E-4l0 0c-1.0681152E-4 0 -2.1362305E-4 -9.918213E-5 -2.1362305E-4 -2.2125244E-4l2.1362305E-4 -8.908863l0 0c0 -3.4379272 2.7870026 -6.2249165 6.22493 -6.2249165z" fill-rule="evenodd"/><path stroke="#d9d9d9" stroke-width="1.0" stroke-linejoin="round" stroke-linecap="butt" d="m249.14165 20.211771l13.754013 0l0 0c1.65094 0 3.2342834 0.6558361 4.4016724 1.8232346c1.1673889 1.1673985 1.8232422 2.7507305 1.8232422 4.401682l0 8.909084c0 1.18255615E-4 -9.1552734E-5 2.1743774E-4 -2.1362305E-4 2.1743774E-4l-26.203644 -2.1743774E-4l0 0c-1.0681152E-4 0 -2.1362305E-4 -9.918213E-5 -2.1362305E-4 -2.2125244E-4l2.1362305E-4 -8.908863l0 0c0 -3.4379272 2.7870026 -6.2249165 6.22493 -6.2249165z" fill-rule="evenodd"/><path fill="#d9d9d9" d="m247.77669 30.644697l16.483932 0l0 15.134001l-16.483932 0z" fill-rule="evenodd"/><path stroke="#d9d9d9" stroke-width="1.0" stroke-linejoin="round" stroke-linecap="butt" d="m247.77669 30.644697l16.483932 0l0 15.134001l-16.483932 0z" fill-rule="evenodd"/><path fill="#d9d9d9" d="m247.77669 12.644771l0 0c0 -4.179139 3.6900482 -7.5670004 8.241959 -7.5670004l0 0c4.5519104 0 8.241974 3.3878613 8.241974 7.5670004l0 0c0 4.179139 -3.6900635 7.5670004 -8.241974 7.5670004l0 0c-4.5519104 0 -8.241959 -3.3878613 -8.241959 -7.5670004z" fill-rule="evenodd"/><path stroke="#d9d9d9" stroke-width="1.0" stroke-linejoin="round" stroke-linecap="butt" d="m247.77669 12.644771l0 0c0 -4.179139 3.6900482 -7.5670004 8.241959 -7.5670004l0 0c4.5519104 0 8.241974 3.3878613 8.241974 7.5670004l0 0c0 4.179139 -3.6900635 7.5670004 -8.241974 7.5670004l0 0c-4.5519104 0 -8.241959 -3.3878613 -8.241959 -7.5670004z" fill-rule="evenodd"/><path fill="#d9d9d9" d="m249.14165 64.28264l13.754013 0l0 0c1.65094 0 3.2342834 0.655838 4.4016724 1.8232346c1.1673889 1.1673965 1.8232422 2.7507324 1.8232422 4.40168l0 8.9090805c0 1.2207031E-4 -9.1552734E-5 2.2125244E-4 -2.1362305E-4 2.2125244E-4l-26.203644 -2.2125244E-4l0 0c-1.0681152E-4 0 -2.1362305E-4 -9.1552734E-5 -2.1362305E-4 -2.1362305E-4l2.1362305E-4 -8.908867l0 0c0 -3.4379272 2.7870026 -6.2249146 6.22493 -6.2249146z" fill-rule="evenodd"/><path stroke="#d9d9d9" stroke-width="1.0" stroke-linejoin="round" stroke-linecap="butt" d="m249.14165 64.28264l13.754013 0l0 0c1.65094 0 3.2342834 0.655838 4.4016724 1.8232346c1.1673889 1.1673965 1.8232422 2.7507324 1.8232422 4.40168l0 8.9090805c0 1.2207031E-4 -9.1552734E-5 2.2125244E-4 -2.1362305E-4 2.2125244E-4l-26.203644 -2.2125244E-4l0 0c-1.0681152E-4 0 -2.1362305E-4 -9.1552734E-5 -2.1362305E-4 -2.1362305E-4l2.1362305E-4 -8.908867l0 0c0 -3.4379272 2.7870026 -6.2249146 6.22493 -6.2249146z" fill-rule="evenodd"/><path fill="#d9d9d9" d="m247.77669 74.71556l16.483932 0l0 15.134003l-16.483932 0z" fill-rule="evenodd"/><path stroke="#d9d9d9" stroke-width="1.0" stroke-linejoin="round" stroke-linecap="butt" d="m247.77669 74.71556l16.483932 0l0 15.134003l-16.483932 0z" fill-rule="evenodd"/><path fill="#d9d9d9" d="m247.77669 56.715637l0 0c0 -4.179138 3.6900482 -7.5670013 8.241959 -7.5670013l0 0c4.5519104 0 8.241974 3.3878632 8.241974 7.5670013l0 0c0 4.179138 -3.6900635 7.5670013 -8.241974 7.5670013l0 0c-4.5519104 0 -8.241959 -3.3878632 -8.241959 -7.5670013z" fill-rule="evenodd"/><path stroke="#d9d9d9" stroke-width="1.0" stroke-linejoin="round" stroke-linecap="butt" d="m247.77669 56.715637l0 0c0 -4.179138 3.6900482 -7.5670013 8.241959 -7.5670013l0 0c4.5519104 0 8.241974 3.3878632 8.241974 7.5670013l0 0c0 4.179138 -3.6900635 7.5670013 -8.241974 7.5670013l0 0c-4.5519104 0 -8.241959 -3.3878632 -8.241959 -7.5670013z" fill-rule="evenodd"/><path fill="#d9d9d9" d="m249.14165 108.3535l13.754013 0l0 0c1.65094 0 3.2342834 0.655838 4.4016724 1.8232346c1.1673889 1.1674042 1.8232422 2.7507324 1.8232422 4.4016876l0 8.9090805c0 1.2207031E-4 -9.1552734E-5 2.2125244E-4 -2.1362305E-4 2.2125244E-4l-26.203644 -2.2125244E-4l0 0c-1.0681152E-4 0 -2.1362305E-4 -9.918213E-5 -2.1362305E-4 -2.2125244E-4l2.1362305E-4 -8.908859l0 0c0 -3.4379272 2.7870026 -6.224922 6.22493 -6.224922z" fill-rule="evenodd"/><path stroke="#d9d9d9" stroke-width="1.0" stroke-linejoin="round" stroke-linecap="butt" d="m249.14165 108.3535l13.754013 0l0 0c1.65094 0 3.2342834 0.655838 4.4016724 1.8232346c1.1673889 1.1674042 1.8232422 2.7507324 1.8232422 4.4016876l0 8.9090805c0 1.2207031E-4 -9.1552734E-5 2.2125244E-4 -2.1362305E-4 2.2125244E-4l-26.203644 -2.2125244E-4l0 0c-1.0681152E-4 0 -2.1362305E-4 -9.918213E-5 -2.1362305E-4 -2.2125244E-4l2.1362305E-4 -8.908859l0 0c0 -3.4379272 2.7870026 -6.224922 6.22493 -6.224922z" fill-rule="evenodd"/><path fill="#d9d9d9" d="m247.77669 118.78643l16.483932 0l0 15.133995l-16.483932 0z" fill-rule="evenodd"/><path stroke="#d9d9d9" stroke-width="1.0" stroke-linejoin="round" stroke-linecap="butt" d="m247.77669 118.78643l16.483932 0l0 15.133995l-16.483932 0z" fill-rule="evenodd"/><path fill="#d9d9d9" d="m247.77669 100.7865l0 0c0 -4.179138 3.6900482 -7.5669937 8.241959 -7.5669937l0 0c4.5519104 0 8.241974 3.3878555 8.241974 7.5669937l0 0c0 4.179146 -3.6900635 7.5670013 -8.241974 7.5670013l0 0c-4.5519104 0 -8.241959 -3.3878555 -8.241959 -7.5670013z" fill-rule="evenodd"/><path stroke="#d9d9d9" stroke-width="1.0" stroke-linejoin="round" stroke-linecap="butt" d="m247.77669 100.7865l0 0c0 -4.179138 3.6900482 -7.5669937 8.241959 -7.5669937l0 0c4.5519104 0 8.241974 3.3878555 8.241974 7.5669937l0 0c0 4.179146 -3.6900635 7.5670013 -8.241974 7.5670013l0 0c-4.5519104 0 -8.241959 -3.3878555 -8.241959 -7.5670013z" fill-rule="evenodd"/><path fill="#d9d9d9" d="m283.34637 20.211771l13.753998 0l0 0c1.65094 0 3.2342834 0.6558361 4.4016724 1.8232346c1.1674194 1.1673985 1.8232422 2.7507305 1.8232422 4.401682l0 8.909084c0 1.18255615E-4 -9.1552734E-5 2.1743774E-4 -2.1362305E-4 2.1743774E-4l-26.203613 -2.1743774E-4l0 0c-1.2207031E-4 0 -2.4414062E-4 -9.918213E-5 -2.4414062E-4 -2.2125244E-4l2.4414062E-4 -8.908863l0 0c0 -3.4379272 2.7869873 -6.2249165 6.2249146 -6.2249165z" fill-rule="evenodd"/><path stroke="#d9d9d9" stroke-width="1.0" stroke-linejoin="round" stroke-linecap="butt" d="m283.34637 20.211771l13.753998 0l0 0c1.65094 0 3.2342834 0.6558361 4.4016724 1.8232346c1.1674194 1.1673985 1.8232422 2.7507305 1.8232422 4.401682l0 8.909084c0 1.18255615E-4 -9.1552734E-5 2.1743774E-4 -2.1362305E-4 2.1743774E-4l-26.203613 -2.1743774E-4l0 0c-1.2207031E-4 0 -2.4414062E-4 -9.918213E-5 -2.4414062E-4 -2.2125244E-4l2.4414062E-4 -8.908863l0 0c0 -3.4379272 2.7869873 -6.2249165 6.2249146 -6.2249165z" fill-rule="evenodd"/><path fill="#d9d9d9" d="m281.9814 30.644697l16.483917 0l0 15.134001l-16.483917 0z" fill-rule="evenodd"/><path stroke="#d9d9d9" stroke-width="1.0" stroke-linejoin="round" stroke-linecap="butt" d="m281.9814 30.644697l16.483917 0l0 15.134001l-16.483917 0z" fill-rule="evenodd"/><path fill="#d9d9d9" d="m281.9814 12.644771l0 0c0 -4.179139 3.690033 -7.5670004 8.241943 -7.5670004l0 0c4.5519104 0 8.241974 3.3878613 8.241974 7.5670004l0 0c0 4.179139 -3.6900635 7.5670004 -8.241974 7.5670004l0 0c-4.5519104 0 -8.241943 -3.3878613 -8.241943 -7.5670004z" fill-rule="evenodd"/><path stroke="#d9d9d9" stroke-width="1.0" stroke-linejoin="round" stroke-linecap="butt" d="m281.9814 12.644771l0 0c0 -4.179139 3.690033 -7.5670004 8.241943 -7.5670004l0 0c4.5519104 0 8.241974 3.3878613 8.241974 7.5670004l0 0c0 4.179139 -3.6900635 7.5670004 -8.241974 7.5670004l0 0c-4.5519104 0 -8.241943 -3.3878613 -8.241943 -7.5670004z" fill-rule="evenodd"/><path fill="#d9d9d9" d="m283.34637 64.28264l13.753998 0l0 0c1.65094 0 3.2342834 0.655838 4.4016724 1.8232346c1.1674194 1.1673965 1.8232422 2.7507324 1.8232422 4.40168l0 8.9090805c0 1.2207031E-4 -9.1552734E-5 2.2125244E-4 -2.1362305E-4 2.2125244E-4l-26.203613 -2.2125244E-4l0 0c-1.2207031E-4 0 -2.4414062E-4 -9.1552734E-5 -2.4414062E-4 -2.1362305E-4l2.4414062E-4 -8.908867l0 0c0 -3.4379272 2.7869873 -6.2249146 6.2249146 -6.2249146z" fill-rule="evenodd"/><path stroke="#d9d9d9" stroke-width="1.0" stroke-linejoin="round" stroke-linecap="butt" d="m283.34637 64.28264l13.753998 0l0 0c1.65094 0 3.2342834 0.655838 4.4016724 1.8232346c1.1674194 1.1673965 1.8232422 2.7507324 1.8232422 4.40168l0 8.9090805c0 1.2207031E-4 -9.1552734E-5 2.2125244E-4 -2.1362305E-4 2.2125244E-4l-26.203613 -2.2125244E-4l0 0c-1.2207031E-4 0 -2.4414062E-4 -9.1552734E-5 -2.4414062E-4 -2.1362305E-4l2.4414062E-4 -8.908867l0 0c0 -3.4379272 2.7869873 -6.2249146 6.2249146 -6.2249146z" fill-rule="evenodd"/><path fill="#d9d9d9" d="m281.9814 74.71556l16.483917 0l0 15.134003l-16.483917 0z" fill-rule="evenodd"/><path stroke="#d9d9d9" stroke-width="1.0" stroke-linejoin="round" stroke-linecap="butt" d="m281.9814 74.71556l16.483917 0l0 15.134003l-16.483917 0z" fill-rule="evenodd"/><path fill="#d9d9d9" d="m281.9814 56.715637l0 0c0 -4.179138 3.690033 -7.5670013 8.241943 -7.5670013l0 0c4.5519104 0 8.241974 3.3878632 8.241974 7.5670013l0 0c0 4.179138 -3.6900635 7.5670013 -8.241974 7.5670013l0 0c-4.5519104 0 -8.241943 -3.3878632 -8.241943 -7.5670013z" fill-rule="evenodd"/><path stroke="#d9d9d9" stroke-width="1.0" stroke-linejoin="round" stroke-linecap="butt" d="m281.9814 56.715637l0 0c0 -4.179138 3.690033 -7.5670013 8.241943 -7.5670013l0 0c4.5519104 0 8.241974 3.3878632 8.241974 7.5670013l0 0c0 4.179138 -3.6900635 7.5670013 -8.241974 7.5670013l0 0c-4.5519104 0 -8.241943 -3.3878632 -8.241943 -7.5670013z" fill-rule="evenodd"/><path fill="#d9d9d9" d="m283.34637 108.3535l13.753998 0l0 0c1.65094 0 3.2342834 0.655838 4.4016724 1.8232346c1.1674194 1.1674042 1.8232422 2.7507324 1.8232422 4.4016876l0 8.9090805c0 1.2207031E-4 -9.1552734E-5 2.2125244E-4 -2.1362305E-4 2.2125244E-4l-26.203613 -2.2125244E-4l0 0c-1.2207031E-4 0 -2.4414062E-4 -9.918213E-5 -2.4414062E-4 -2.2125244E-4l2.4414062E-4 -8.908859l0 0c0 -3.4379272 2.7869873 -6.224922 6.2249146 -6.224922z" fill-rule="evenodd"/><path stroke="#d9d9d9" stroke-width="1.0" stroke-linejoin="round" stroke-linecap="butt" d="m283.34637 108.3535l13.753998 0l0 0c1.65094 0 3.2342834 0.655838 4.4016724 1.8232346c1.1674194 1.1674042 1.8232422 2.7507324 1.8232422 4.4016876l0 8.9090805c0 1.2207031E-4 -9.1552734E-5 2.2125244E-4 -2.1362305E-4 2.2125244E-4l-26.203613 -2.2125244E-4l0 0c-1.2207031E-4 0 -2.4414062E-4 -9.918213E-5 -2.4414062E-4 -2.2125244E-4l2.4414062E-4 -8.908859l0 0c0 -3.4379272 2.7869873 -6.224922 6.2249146 -6.224922z" fill-rule="evenodd"/><path fill="#d9d9d9" d="m281.9814 118.78643l16.483917 0l0 15.133995l-16.483917 0z" fill-rule="evenodd"/><path stroke="#d9d9d9" stroke-width="1.0" stroke-linejoin="round" stroke-linecap="butt" d="m281.9814 118.78643l16.483917 0l0 15.133995l-16.483917 0z" fill-rule="evenodd"/><path fill="#d9d9d9" d="m281.9814 100.7865l0 0c0 -4.179138 3.690033 -7.5669937 8.241943 -7.5669937l0 0c4.5519104 0 8.241974 3.3878555 8.241974 7.5669937l0 0c0 4.179146 -3.6900635 7.5670013 -8.241974 7.5670013l0 0c-4.5519104 0 -8.241943 -3.3878555 -8.241943 -7.5670013z" fill-rule="evenodd"/><path stroke="#d9d9d9" stroke-width="1.0" stroke-linejoin="round" stroke-linecap="butt" d="m281.9814 100.7865l0 0c0 -4.179138 3.690033 -7.5669937 8.241943 -7.5669937l0 0c4.5519104 0 8.241974 3.3878555 8.241974 7.5669937l0 0c0 4.179146 -3.6900635 7.5670013 -8.241974 7.5670013l0 0c-4.5519104 0 -8.241943 -3.3878555 -8.241943 -7.5670013z" fill-rule="evenodd"/><path fill="#d9d9d9" d="m317.5511 20.211771l13.753998 0l0 0c1.6509705 0 3.2342834 0.6558361 4.401703 1.8232346c1.1673889 1.1673985 1.8232422 2.7507305 1.8232422 4.401682l0 8.909084c0 1.18255615E-4 -1.2207031E-4 2.1743774E-4 -2.4414062E-4 2.1743774E-4l-26.203613 -2.1743774E-4l0 0c-1.2207031E-4 0 -2.1362305E-4 -9.918213E-5 -2.1362305E-4 -2.2125244E-4l2.1362305E-4 -8.908863l0 0c0 -3.4379272 2.7869873 -6.2249165 6.2249146 -6.2249165z" fill-rule="evenodd"/><path stroke="#d9d9d9" stroke-width="1.0" stroke-linejoin="round" stroke-linecap="butt" d="m317.5511 20.211771l13.753998 0l0 0c1.6509705 0 3.2342834 0.6558361 4.401703 1.8232346c1.1673889 1.1673985 1.8232422 2.7507305 1.8232422 4.401682l0 8.909084c0 1.18255615E-4 -1.2207031E-4 2.1743774E-4 -2.4414062E-4 2.1743774E-4l-26.203613 -2.1743774E-4l0 0c-1.2207031E-4 0 -2.1362305E-4 -9.918213E-5 -2.1362305E-4 -2.2125244E-4l2.1362305E-4 -8.908863l0 0c0 -3.4379272 2.7869873 -6.2249165 6.2249146 -6.2249165z" fill-rule="evenodd"/><path fill="#d9d9d9" d="m316.18613 30.644697l16.483917 0l0 15.134001l-16.483917 0z" fill-rule="evenodd"/><path stroke="#d9d9d9" stroke-width="1.0" stroke-linejoin="round" stroke-linecap="butt" d="m316.18613 30.644697l16.483917 0l0 15.134001l-16.483917 0z" fill-rule="evenodd"/><path fill="#d9d9d9" d="m316.18613 12.644771l0 0c0 -4.179139 3.6900635 -7.5670004 8.241974 -7.5670004l0 0c4.5519104 0 8.241943 3.3878613 8.241943 7.5670004l0 0c0 4.179139 -3.690033 7.5670004 -8.241943 7.5670004l0 0c-4.5519104 0 -8.241974 -3.3878613 -8.241974 -7.5670004z" fill-rule="evenodd"/><path stroke="#d9d9d9" stroke-width="1.0" stroke-linejoin="round" stroke-linecap="butt" d="m316.18613 12.644771l0 0c0 -4.179139 3.6900635 -7.5670004 8.241974 -7.5670004l0 0c4.5519104 0 8.241943 3.3878613 8.241943 7.5670004l0 0c0 4.179139 -3.690033 7.5670004 -8.241943 7.5670004l0 0c-4.5519104 0 -8.241974 -3.3878613 -8.241974 -7.5670004z" fill-rule="evenodd"/><path fill="#d9d9d9" d="m317.5511 64.28264l13.753998 0l0 0c1.6509705 0 3.2342834 0.655838 4.401703 1.8232346c1.1673889 1.1673965 1.8232422 2.7507324 1.8232422 4.40168l0 8.9090805c0 1.2207031E-4 -1.2207031E-4 2.2125244E-4 -2.4414062E-4 2.2125244E-4l-26.203613 -2.2125244E-4l0 0c-1.2207031E-4 0 -2.1362305E-4 -9.1552734E-5 -2.1362305E-4 -2.1362305E-4l2.1362305E-4 -8.908867l0 0c0 -3.4379272 2.7869873 -6.2249146 6.2249146 -6.2249146z" fill-rule="evenodd"/><path stroke="#d9d9d9" stroke-width="1.0" stroke-linejoin="round" stroke-linecap="butt" d="m317.5511 64.28264l13.753998 0l0 0c1.6509705 0 3.2342834 0.655838 4.401703 1.8232346c1.1673889 1.1673965 1.8232422 2.7507324 1.8232422 4.40168l0 8.9090805c0 1.2207031E-4 -1.2207031E-4 2.2125244E-4 -2.4414062E-4 2.2125244E-4l-26.203613 -2.2125244E-4l0 0c-1.2207031E-4 0 -2.1362305E-4 -9.1552734E-5 -2.1362305E-4 -2.1362305E-4l2.1362305E-4 -8.908867l0 0c0 -3.4379272 2.7869873 -6.2249146 6.2249146 -6.2249146z" fill-rule="evenodd"/><path fill="#d9d9d9" d="m316.18613 74.71556l16.483917 0l0 15.134003l-16.483917 0z" fill-rule="evenodd"/><path stroke="#d9d9d9" stroke-width="1.0" stroke-linejoin="round" stroke-linecap="butt" d="m316.18613 74.71556l16.483917 0l0 15.134003l-16.483917 0z" fill-rule="evenodd"/><path fill="#d9d9d9" d="m316.18613 56.715637l0 0c0 -4.179138 3.6900635 -7.5670013 8.241974 -7.5670013l0 0c4.5519104 0 8.241943 3.3878632 8.241943 7.5670013l0 0c0 4.179138 -3.690033 7.5670013 -8.241943 7.5670013l0 0c-4.5519104 0 -8.241974 -3.3878632 -8.241974 -7.5670013z" fill-rule="evenodd"/><path stroke="#d9d9d9" stroke-width="1.0" stroke-linejoin="round" stroke-linecap="butt" d="m316.18613 56.715637l0 0c0 -4.179138 3.6900635 -7.5670013 8.241974 -7.5670013l0 0c4.5519104 0 8.241943 3.3878632 8.241943 7.5670013l0 0c0 4.179138 -3.690033 7.5670013 -8.241943 7.5670013l0 0c-4.5519104 0 -8.241974 -3.3878632 -8.241974 -7.5670013z" fill-rule="evenodd"/><path fill="#d9d9d9" d="m317.5511 108.3535l13.753998 0l0 0c1.6509705 0 3.2342834 0.655838 4.401703 1.8232346c1.1673889 1.1674042 1.8232422 2.7507324 1.8232422 4.4016876l0 8.9090805c0 1.2207031E-4 -1.2207031E-4 2.2125244E-4 -2.4414062E-4 2.2125244E-4l-26.203613 -2.2125244E-4l0 0c-1.2207031E-4 0 -2.1362305E-4 -9.918213E-5 -2.1362305E-4 -2.2125244E-4l2.1362305E-4 -8.908859l0 0c0 -3.4379272 2.7869873 -6.224922 6.2249146 -6.224922z" fill-rule="evenodd"/><path stroke="#d9d9d9" stroke-width="1.0" stroke-linejoin="round" stroke-linecap="butt" d="m317.5511 108.3535l13.753998 0l0 0c1.6509705 0 3.2342834 0.655838 4.401703 1.8232346c1.1673889 1.1674042 1.8232422 2.7507324 1.8232422 4.4016876l0 8.9090805c0 1.2207031E-4 -1.2207031E-4 2.2125244E-4 -2.4414062E-4 2.2125244E-4l-26.203613 -2.2125244E-4l0 0c-1.2207031E-4 0 -2.1362305E-4 -9.918213E-5 -2.1362305E-4 -2.2125244E-4l2.1362305E-4 -8.908859l0 0c0 -3.4379272 2.7869873 -6.224922 6.2249146 -6.224922z" fill-rule="evenodd"/><path fill="#d9d9d9" d="m316.18613 118.78643l16.483917 0l0 15.133995l-16.483917 0z" fill-rule="evenodd"/><path stroke="#d9d9d9" stroke-width="1.0" stroke-linejoin="round" stroke-linecap="butt" d="m316.18613 118.78643l16.483917 0l0 15.133995l-16.483917 0z" fill-rule="evenodd"/><path fill="#d9d9d9" d="m316.18613 100.7865l0 0c0 -4.179138 3.6900635 -7.5669937 8.241974 -7.5669937l0 0c4.5519104 0 8.241943 3.3878555 8.241943 7.5669937l0 0c0 4.179146 -3.690033 7.5670013 -8.241943 7.5670013l0 0c-4.5519104 0 -8.241974 -3.3878555 -8.241974 -7.5670013z" fill-rule="evenodd"/><path stroke="#d9d9d9" stroke-width="1.0" stroke-linejoin="round" stroke-linecap="butt" d="m316.18613 100.7865l0 0c0 -4.179138 3.6900635 -7.5669937 8.241974 -7.5669937l0 0c4.5519104 0 8.241943 3.3878555 8.241943 7.5669937l0 0c0 4.179146 -3.690033 7.5670013 -8.241943 7.5670013l0 0c-4.5519104 0 -8.241974 -3.3878555 -8.241974 -7.5670013z" fill-rule="evenodd"/><path fill="#33cccc" fill-opacity="0.3577" d="m112.32916 64.286575l13.74205 0l0 0c1.6526566 0 3.2376251 0.6565094 4.4062195 1.8251114c1.1686096 1.168602 1.825119 2.7535706 1.825119 4.4062195l0 8.918274c0 1.2207031E-4 -9.1552734E-5 2.2125244E-4 -2.1362305E-4 2.2125244E-4l-26.204514 -2.2125244E-4l0 0c-1.2207031E-4 0 -2.1362305E-4 -9.918213E-5 -2.1362305E-4 -2.2125244E-4l2.1362305E-4 -8.918053l0 0c0 -3.4414673 2.7898636 -6.231331 6.2313385 -6.231331z" fill-rule="evenodd"/><path fill="#33cccc" fill-opacity="0.3577" d="m110.95801 79.42101l16.472435 0l0 10.425194l-16.472435 0z" fill-rule="evenodd"/><path fill="#33cccc" fill-opacity="0.3577" d="m110.95779 56.727375l0 0c0 -4.183445 3.6874847 -7.5748024 8.236221 -7.5748024l0 0c4.5487366 0 8.236221 3.3913574 8.236221 7.5748024l0 0c0 4.183449 -3.6874847 7.5748024 -8.236221 7.5748024l0 0c-4.5487366 0 -8.236221 -3.3913536 -8.236221 -7.5748024z" fill-rule="evenodd"/><path fill="#33cccc" fill-opacity="0.3577" d="m112.32916 108.350876l13.74205 0l0 0c1.6526566 0 3.2376251 0.656517 4.4062195 1.825119c1.1686096 1.168602 1.825119 2.753563 1.825119 4.4062195l0 8.918266c0 1.2207031E-4 -9.1552734E-5 2.2125244E-4 -2.1362305E-4 2.2125244E-4l-26.204514 -2.2125244E-4l0 0c-1.2207031E-4 0 -2.1362305E-4 -9.1552734E-5 -2.1362305E-4 -2.1362305E-4l2.1362305E-4 -8.918053l0 0c0 -3.441475 2.7898636 -6.2313385 6.2313385 -6.2313385z" fill-rule="evenodd"/><path fill="#33cccc" fill-opacity="0.3577" d="m110.95801 123.48532l16.472435 0l0 10.425186l-16.472435 0z" fill-rule="evenodd"/><path fill="#33cccc" fill-opacity="0.3577" d="m110.95779 100.79168l0 0c0 -4.183449 3.6874847 -7.5747986 8.236221 -7.5747986l0 0c4.5487366 0 8.236221 3.3913498 8.236221 7.5747986l0 0c0 4.183449 -3.6874847 7.574806 -8.236221 7.574806l0 0c-4.5487366 0 -8.236221 -3.3913574 -8.236221 -7.574806z" fill-rule="evenodd"/><path fill="#33cccc" fill-opacity="0.3577" d="m146.53389 108.35744l13.74205 0l0 0c1.6526489 0 3.2376099 0.656517 4.4062195 1.825119c1.1685944 1.168602 1.825119 2.753563 1.825119 4.4062195l0 8.918274c0 1.1444092E-4 -1.0681152E-4 2.1362305E-4 -2.2888184E-4 2.1362305E-4l-26.204498 -2.1362305E-4l0 0c-1.2207031E-4 0 -2.1362305E-4 -9.918213E-5 -2.1362305E-4 -2.2125244E-4l2.1362305E-4 -8.918053l0 0c0 -3.441475 2.789856 -6.2313385 6.2313385 -6.2313385z" fill-rule="evenodd"/><path fill="#33cccc" fill-opacity="0.3577" d="m145.16273 123.49188l16.472443 0l0 10.425186l-16.472443 0z" fill-rule="evenodd"/><path fill="#33cccc" fill-opacity="0.3577" d="m145.1625 100.79824l0 0c0 -4.183449 3.6874847 -7.5747986 8.236221 -7.5747986l0 0c4.5487366 0 8.236221 3.3913498 8.236221 7.5747986l0 0c0 4.183449 -3.6874847 7.574806 -8.236221 7.574806l0 0c-4.5487366 0 -8.236221 -3.3913574 -8.236221 -7.574806z" fill-rule="evenodd"/><path fill="#33cccc" fill-opacity="0.3577" d="m146.53389 64.286575l13.74205 0l0 0c1.6526489 0 3.2376099 0.6565094 4.4062195 1.8251114c1.1685944 1.168602 1.825119 2.7535706 1.825119 4.4062195l0 8.918274c0 1.2207031E-4 -1.0681152E-4 2.2125244E-4 -2.2888184E-4 2.2125244E-4l-26.204498 -2.2125244E-4l0 0c-1.2207031E-4 0 -2.1362305E-4 -9.918213E-5 -2.1362305E-4 -2.2125244E-4l2.1362305E-4 -8.918053l0 0c0 -3.4414673 2.789856 -6.231331 6.2313385 -6.231331z" fill-rule="evenodd"/><path fill="#33cccc" fill-opacity="0.3577" d="m145.16273 79.42101l16.472443 0l0 10.425194l-16.472443 0z" fill-rule="evenodd"/><path fill="#33cccc" fill-opacity="0.3577" d="m145.1625 56.727375l0 0c0 -4.183445 3.6874847 -7.5748024 8.236221 -7.5748024l0 0c4.5487366 0 8.236221 3.3913574 8.236221 7.5748024l0 0c0 4.183449 -3.6874847 7.5748024 -8.236221 7.5748024l0 0c-4.5487366 0 -8.236221 -3.3913536 -8.236221 -7.5748024z" fill-rule="evenodd"/><path fill="#33cccc" fill-opacity="0.3577" d="m180.73862 64.28526l13.74205 0l0 0c1.6526489 0 3.2376099 0.6565094 4.4062195 1.8251114c1.1685944 1.168602 1.825119 2.7535706 1.825119 4.4062195l0 8.918274c0 1.2207031E-4 -1.0681152E-4 2.2125244E-4 -2.2888184E-4 2.2125244E-4l-26.204498 -2.2125244E-4l0 0c-1.2207031E-4 0 -2.2888184E-4 -9.918213E-5 -2.2888184E-4 -2.2125244E-4l2.2888184E-4 -8.918053l0 0c0 -3.4414673 2.789856 -6.231331 6.2313385 -6.231331z" fill-rule="evenodd"/><path fill="#33cccc" fill-opacity="0.3577" d="m179.36745 79.4197l16.472443 0l0 10.425194l-16.472443 0z" fill-rule="evenodd"/><path fill="#33cccc" fill-opacity="0.3577" d="m179.36723 56.726063l0 0c0 -4.183445 3.6874847 -7.5748024 8.236221 -7.5748024l0 0c4.5487366 0 8.236221 3.3913574 8.236221 7.5748024l0 0c0 4.183449 -3.6874847 7.5748024 -8.236221 7.5748024l0 0c-4.5487366 0 -8.236221 -3.3913536 -8.236221 -7.5748024z" fill-rule="evenodd"/><path fill="#33cccc" fill-opacity="0.3577" d="m214.94333 64.28526l13.742065 0l0 0c1.6526489 0 3.2376099 0.6565094 4.4062195 1.8251114c1.1685944 1.168602 1.8251038 2.7535706 1.8251038 4.4062195l0 8.918274c0 1.2207031E-4 -9.1552734E-5 2.2125244E-4 -2.1362305E-4 2.2125244E-4l-26.204498 -2.2125244E-4l0 0c-1.2207031E-4 0 -2.2888184E-4 -9.918213E-5 -2.2888184E-4 -2.2125244E-4l2.2888184E-4 -8.918053l0 0c0 -3.4414673 2.789856 -6.231331 6.2313232 -6.231331z" fill-rule="evenodd"/><path fill="#33cccc" fill-opacity="0.3577" d="m213.57217 79.4197l16.472443 0l0 10.425194l-16.472443 0z" fill-rule="evenodd"/><path fill="#33cccc" fill-opacity="0.3577" d="m213.57196 56.726063l0 0c0 -4.183445 3.6874847 -7.5748024 8.236221 -7.5748024l0 0c4.5487366 0 8.236221 3.3913574 8.236221 7.5748024l0 0c0 4.183449 -3.6874847 7.5748024 -8.236221 7.5748024l0 0c-4.5487366 0 -8.236221 -3.3913536 -8.236221 -7.5748024z" fill-rule="evenodd"/><path fill="#33cccc" fill-opacity="0.3577" d="m146.53389 20.214396l13.74205 0l0 0c1.6526489 0 3.2376099 0.6565132 4.4062195 1.8251152c1.1685944 1.168602 1.825119 2.7535667 1.825119 4.4062195l0 8.918272c0 1.18255615E-4 -1.0681152E-4 2.1743774E-4 -2.2888184E-4 2.1743774E-4l-26.204498 -2.1743774E-4l0 0c-1.2207031E-4 0 -2.1362305E-4 -9.918213E-5 -2.1362305E-4 -2.1743774E-4l2.1362305E-4 -8.918055l0 0c0 -3.441471 2.789856 -6.2313347 6.2313385 -6.2313347z" fill-rule="evenodd"/><path fill="#33cccc" fill-opacity="0.3577" d="m145.16273 35.348835l16.472443 0l0 10.425198l-16.472443 0z" fill-rule="evenodd"/><path fill="#33cccc" fill-opacity="0.3577" d="m145.1625 12.655198l0 0c0 -4.183448 3.6874847 -7.574803 8.236221 -7.574803l0 0c4.5487366 0 8.236221 3.391355 8.236221 7.574803l0 0c0 4.183448 -3.6874847 7.5748034 -8.236221 7.5748034l0 0c-4.5487366 0 -8.236221 -3.3913555 -8.236221 -7.5748034z" fill-rule="evenodd"/><path fill="#33cccc" fill-opacity="0.3577" d="m180.73862 20.21702l13.74205 0l0 0c1.6526489 0 3.2376099 0.6565132 4.4062195 1.8251152c1.1685944 1.168602 1.825119 2.7535667 1.825119 4.4062214l0 8.91827c0 1.18255615E-4 -1.0681152E-4 2.1743774E-4 -2.2888184E-4 2.1743774E-4l-26.204498 -2.1743774E-4l0 0c-1.2207031E-4 0 -2.2888184E-4 -9.918213E-5 -2.2888184E-4 -2.1743774E-4l2.2888184E-4 -8.918053l0 0c0 -3.441473 2.789856 -6.2313366 6.2313385 -6.2313366z" fill-rule="evenodd"/><path fill="#33cccc" fill-opacity="0.3577" d="m179.36745 35.35146l16.472443 0l0 10.425198l-16.472443 0z" fill-rule="evenodd"/><path fill="#33cccc" fill-opacity="0.3577" d="m179.36723 12.657823l0 0c0 -4.183448 3.6874847 -7.574803 8.236221 -7.574803l0 0c4.5487366 0 8.236221 3.391355 8.236221 7.574803l0 0c0 4.183448 -3.6874847 7.5748034 -8.236221 7.5748034l0 0c-4.5487366 0 -8.236221 -3.3913555 -8.236221 -7.5748034z" fill-rule="evenodd"/><path fill="#33cccc" fill-opacity="0.3577" d="m214.94333 20.21702l13.742065 0l0 0c1.6526489 0 3.2376099 0.6565132 4.4062195 1.8251152c1.1685944 1.168602 1.8251038 2.7535667 1.8251038 4.4062214l0 8.91827c0 1.18255615E-4 -9.1552734E-5 2.1743774E-4 -2.1362305E-4 2.1743774E-4l-26.204498 -2.1743774E-4l0 0c-1.2207031E-4 0 -2.2888184E-4 -9.918213E-5 -2.2888184E-4 -2.1743774E-4l2.2888184E-4 -8.918053l0 0c0 -3.441473 2.789856 -6.2313366 6.2313232 -6.2313366z" fill-rule="evenodd"/><path fill="#33cccc" fill-opacity="0.3577" d="m213.57217 35.35146l16.472443 0l0 10.425198l-16.472443 0z" fill-rule="evenodd"/><path fill="#33cccc" fill-opacity="0.3577" d="m213.57196 12.657823l0 0c0 -4.183448 3.6874847 -7.574803 8.236221 -7.574803l0 0c4.5487366 0 8.236221 3.391355 8.236221 7.574803l0 0c0 4.183448 -3.6874847 7.5748034 -8.236221 7.5748034l0 0c-4.5487366 0 -8.236221 -3.3913555 -8.236221 -7.5748034z" fill-rule="evenodd"/></g></svg>
